<?xml version="1.0" encoding="UTF-8"?>
<svg id="Layer_1" data-name="Layer 1" xmlns="http://www.w3.org/2000/svg" xmlns:xlink="http://www.w3.org/1999/xlink" viewBox="0 0 126.21 166.12">
  <defs>
    <style>
      .cls-1 {
        fill: #bfa78f;
      }

      .cls-2 {
        fill: #f8efe6;
      }

      .cls-3 {
        clip-path: url(#clippath);
      }

      .cls-4 {
        fill: none;
      }
    </style>
    <clipPath id="clippath">
      <rect class="cls-4" x="0" y="0" width="126.2" height="166.11"/>
    </clipPath>
  </defs>
  <g class="cls-3">
    <g id="Group_200" data-name="Group 200">
      <path id="Path_541" data-name="Path 541" class="cls-1" d="m62.26,166.06c-1.42,0-2.61-1.08-2.74-2.5-.69-7.44.76-15.34,4.31-23.47.61-1.4,12.63-15.68,14.03-15.06s-8.37,15.87-8.98,17.27c-3.18,7.26-4.48,14.24-3.88,20.74.14,1.52-.97,2.86-2.49,3-.09,0-.17.01-.26.01"/>
      <path id="Path_542" data-name="Path 542" class="cls-1" d="m56.72,158.76c1.14-10.62-.78-17.17-4.73-24.48-5.44-10.06-17.22-20.94-17.84-17.01-1.38,8.8-1.27,17.64,1.98,26.06,4.05,10.49,20.37,17.56,20.6,15.43"/>
      <path id="Path_543" data-name="Path 543" class="cls-1" d="m61.42,152.34c2.23-11.22,8.55-22.41,18.4-29.13,12.69-8.65,32.39-10.63,30.97-6.08-2.86,9.17-4.49,15.21-15.54,24.84-9.1,7.93-21.28,12.96-33.83,10.37"/>
      <path id="Path_544" data-name="Path 544" class="cls-2" d="m66.67,155.98c-.06,0-.12,0-.18-.01-.71-.1-1.21-.76-1.11-1.47,0,0,0,0,0,0,.86-6.09,4.49-12.71,10.23-18.64,5.36-5.6,11.94-9.89,19.22-12.54.68-.23,1.42.12,1.65.8.23.68-.12,1.42-.8,1.65-13.7,4.74-26.14,17.79-27.73,29.09-.09.64-.64,1.12-1.29,1.12"/>
      <path id="Path_545" data-name="Path 545" class="cls-1" d="m60.87,166.12h-.07c-1.66-.04-2.97-1.41-2.93-3.07l2.46-108.74c.04-1.63,1.37-2.93,3-2.93h.07c1.66.04,2.97,1.41,2.93,3.07l-2.46,108.74c-.04,1.63-1.37,2.93-3,2.93"/>
      <path id="Path_546" data-name="Path 546" class="cls-1" d="m80.01,3.07c-.14-.67-.5-1.2-1.48-.87-8.14,2.74-38.56,15.17-24.06,38.77,3.53,6.09,11.14,8.46,17.5,5.44,14.83-6.74,9.4-36.85,8.04-43.34"/>
      <path id="Path_547" data-name="Path 547" class="cls-1" d="m48.96,3.62c-.88-.32-1.86.13-2.18,1.01-.02.06-.04.12-.06.19-2,8.38-8.55,42.78,18.49,42.78,7.72,0,14.6-8.2,15.43-14.85,1.97-15.74-24.43-26.46-31.68-29.12"/>
      <path id="Path_548" data-name="Path 548" class="cls-1" d="m55.94,8.54s1.26-2.52,2.1-3.99c.88-1.54,2.04-2.91,3.42-4.02.76-.64,1.85-.7,2.68-.16,1.36.82,2.55,1.89,3.51,3.15,1.48,1.86,2.78,3.86,3.88,5.97l-7.84,5.96-7.75-6.91Z"/>
      <path id="Path_549" data-name="Path 549" class="cls-1" d="m125.99,65.72c.29-.29.28-.76,0-1.05-.09-.09-.2-.15-.31-.18-5.71-2.84-28.2-12.27-32.97,7.72-1.35,5.05,1.41,10.28,6.33,12.03,11.32,4.24,24.27-14.4,26.96-18.52"/>
      <path id="Path_550" data-name="Path 550" class="cls-1" d="m109.41,49.72c-.29-.63-1.04-.91-1.67-.62-.05.02-.09.05-.13.07-5.45,3.35-26.93,17.96-12.74,32.15,4.05,4.05,11.96,3.36,15.89.3,9.29-7.23,1.06-26.71-1.35-31.91"/>
      <path id="Path_551" data-name="Path 551" class="cls-1" d="m110.5,55.96s1.99-.66,3.2-.99c1.27-.35,2.6-.45,3.91-.31.73.07,1.34.6,1.49,1.33.28,1.14.35,2.33.19,3.49-.2,1.75-.57,3.48-1.1,5.17l-7.24-.99-.44-7.69Z"/>
      <path id="Path_552" data-name="Path 552" class="cls-1" d="m63.56,109.81c-1.66,0-3-1.34-3-3,0-.84.35-1.64.97-2.21l24.5-22.5c1.22-1.12,3.12-1.04,4.24.18s1.04,3.12-.18,4.24h0l-24.5,22.5c-.55.51-1.28.79-2.03.79"/>
      <path id="Path_553" data-name="Path 553" class="cls-1" d="m.21,65.72c-.29-.29-.28-.76,0-1.05.09-.09.2-.15.31-.18,5.71-2.84,28.2-12.27,32.97,7.72,1.35,5.05-1.41,10.28-6.33,12.03C15.86,88.49,2.91,69.84.21,65.72"/>
      <path id="Path_554" data-name="Path 554" class="cls-1" d="m16.8,49.72c.29-.63,1.04-.91,1.67-.61.04.02.09.04.13.07,5.45,3.35,26.94,17.96,12.75,32.15-4.05,4.05-11.96,3.36-15.89.3-9.29-7.23-1.06-26.71,1.35-31.91"/>
      <path id="Path_555" data-name="Path 555" class="cls-1" d="m15.71,55.96s-1.98-.66-3.2-.99c-1.27-.35-2.59-.45-3.9-.31-.73.07-1.34.6-1.49,1.33-.28,1.14-.35,2.33-.19,3.49.2,1.75.57,3.48,1.1,5.17l7.24-.99.43-7.69Z"/>
      <path id="Path_556" data-name="Path 556" class="cls-1" d="m62.65,109.81c-.75,0-1.48-.28-2.03-.79l-24.5-22.5c-1.22-1.12-1.3-3.02-.18-4.24s3.02-1.3,4.24-.18h0l24.5,22.5c1.22,1.12,1.3,3.02.18,4.24-.57.62-1.37.97-2.21.97"/>
    </g>
  </g>
</svg>