<?xml version="1.0" encoding="UTF-8"?>
<svg id="Layer_1" data-name="Layer 1" xmlns="http://www.w3.org/2000/svg" xmlns:xlink="http://www.w3.org/1999/xlink" viewBox="0 0 130.65 103.5">
  <defs>
    <style>
      .cls-1 {
        fill: #bfa78f;
      }

      .cls-2 {
        clip-path: url(#clippath);
      }

      .cls-3 {
        fill: none;
      }
    </style>
    <clipPath id="clippath">
      <rect class="cls-3" y="0" width="130.65" height="103.5"/>
    </clipPath>
  </defs>
  <g class="cls-2">
    <g id="Group_35" data-name="Group 35">
      <path id="Path_87" data-name="Path 87" class="cls-1" d="m56.38,56.53c-.38-5.18.58-10.37,2.77-15.08.39-.9,1.43-1.31,2.33-.93.9.39,1.31,1.43.93,2.33,0,0,0,.01,0,.02-1.95,4.16-2.81,8.75-2.49,13.33"/>
      <path id="Path_88" data-name="Path 88" class="cls-1" d="m56.28,64.93c-1.42-4.94-.17-18.33,2.88-23.48.42-.86,1.44-1.26,2.33-.91.9.39,1.31,1.44.91,2.33,0,0,0,0,0,0-2.04,4.67-2.88,17.73-2.49,21.91"/>
      <path id="Path_89" data-name="Path 89" class="cls-1" d="m54.59,53.45c.8-5.44-.27-10.98-3.04-15.73-3.5-6.46-11.07-13.46-11.47-10.93-.89,5.65-.82,11.33,1.27,16.74,2.6,6.74,13.09,11.28,13.24,9.92"/>
      <path id="Path_90" data-name="Path 90" class="cls-1" d="m71.98,24.79c-8.06,5.49-13.22,14.64-15.04,23.81,1.31.18,2.63.28,3.95.31.94-5.95,3.36-9.35,7.65-13.78,4.38-4.58,9.76-8.09,15.72-10.25.56-.19,1.16.1,1.35.66s-.1,1.16-.65,1.35h0c-10.6,3.67-20.27,13.41-22.38,22.27,8.22-.04,15.96-3.75,22.02-9.03,9.04-7.87,10.37-12.81,12.71-20.31,1.16-3.72-14.94-2.1-25.32,4.97"/>
      <path id="Path_91" data-name="Path 91" class="cls-1" d="m18.05,67.94c-1.01,0-1.83-.82-1.83-1.82,0,0,0,0,0,0l.22-63.76c0-1,.81-1.81,1.82-1.82L111.69,0h.01c1.01,0,1.83.82,1.83,1.82h0s.01,63.98.01,63.98c0,1.01-.81,1.82-1.82,1.83l-93.67.32h0Zm2.04-63.77l-.21,60.11,90.01-.3V3.66s-89.8.51-89.8.51Z"/>
      <path id="Path_92" data-name="Path 92" class="cls-1" d="m128.82,103.5h0l-127-.42c-1.01,0-1.82-.82-1.82-1.83,0-.26.06-.52.17-.76l16.22-35.14,3.32,1.53-15.03,32.56,121.21.4-15.81-32.19,3.28-1.61,17.1,34.83c.44.91.07,2-.83,2.44-.25.12-.53.19-.81.19"/>
      <path id="Path_93" data-name="Path 93" class="cls-1" d="m81.49,95.77h0l-29.51-.04c-1.41,0-2.56-1.15-2.55-2.56,0-1.41,1.14-2.55,2.55-2.55h0l29.51.04c1.41,0,2.56,1.15,2.55,2.56,0,1.41-1.14,2.55-2.55,2.55"/>
    </g>
  </g>
</svg>