<?xml version="1.0" encoding="UTF-8"?>
<svg id="Layer_1" data-name="Layer 1" xmlns="http://www.w3.org/2000/svg" viewBox="0 0 28.8 40.54">
  <defs>
    <style>
      .cls-1 {
        fill: #f8efe6;
      }
    </style>
  </defs>
  <path class="cls-1" d="m17.92,40.54h-9.38c-.83,0-1.5-.67-1.5-1.5v-13.52H1.5c-.83,0-1.5-.67-1.5-1.5v-7.51c0-.83.67-1.5,1.5-1.5h5.54v-4.13C7.04,4.88,12.97,0,20.27,0h7.03c.83,0,1.5.67,1.5,1.5v7.51c0,.83-.67,1.5-1.5,1.5h-7.03s-.1,0-.15,0c-.33-.03-.63.18-.7.5v4.01h7.88c.48,0,.93.23,1.21.61.28.38.37.88.22,1.34l-2.34,7.51c-.2.63-.78,1.05-1.43,1.05h-5.54v13.52c0,.83-.67,1.5-1.5,1.5Zm-7.88-3h6.38v-13.52c0-.83.67-1.5,1.5-1.5h5.93l1.41-4.51h-7.34c-.83,0-1.5-.67-1.5-1.5v-5.63c0-.06,0-.12.01-.18.24-1.96,1.95-3.34,3.9-3.19h5.47V3h-5.53c-5.64,0-10.23,3.54-10.23,7.89v5.63c0,.83-.67,1.5-1.5,1.5H3v4.51h5.54c.83,0,1.5.67,1.5,1.5v13.52Z"/>
</svg>