<?xml version="1.0" encoding="utf-8"?>
<!-- Generator: Adobe Illustrator 27.2.0, SVG Export Plug-In . SVG Version: 6.00 Build 0)  -->
<svg version="1.1" id="Layer_1" xmlns="http://www.w3.org/2000/svg" xmlns:xlink="http://www.w3.org/1999/xlink" x="0px" y="0px"
	 viewBox="0 0 1920 872" style="enable-background:new 0 0 1920 872;" xml:space="preserve">
<style type="text/css">
	.st0{fill:#20433C;}
	.st1{fill:#859E86;}
	.st2{clip-path:url(#SVGID_00000075878093418772874900000017631508791842730910_);}
	.st3{fill:#F8EFE6;}
	.st4{clip-path:url(#SVGID_00000121974940974879454620000007572089952169763993_);}
	.st5{clip-path:url(#SVGID_00000102517406389743003290000007352456208258415507_);}
	.st6{clip-path:url(#SVGID_00000103966938906231528020000002737883331337890947_);}
	.st7{fill:none;}
	.st8{clip-path:url(#SVGID_00000172430606343887603020000012492780724115168949_);}
</style>
<path id="Path_99" class="st0" d="M0.4,185.9h1920v695H0.4V185.9z"/>
<rect id="Rectangle_46" x="0.4" y="-3.5" class="st1" width="1920" height="189.4"/>
<g id="Group_138" transform="translate(1469.984 968)">
	<g>
		<defs>
			<rect id="SVGID_1_" x="20.4" y="-918.1" width="184.5" height="750.1"/>
		</defs>
		<clipPath id="SVGID_00000052801515423342236390000003637491320207705782_">
			<use xlink:href="#SVGID_1_"  style="overflow:visible;"/>
		</clipPath>
		<g id="Mask_Group_137" style="clip-path:url(#SVGID_00000052801515423342236390000003637491320207705782_);">
			<path id="Path_152" class="st3" d="M86.1-219.1c-0.9,0-1.7-0.7-1.7-1.7c0-34-9.2-136.3-9.3-137.3c-0.1-0.9,0.6-1.7,1.5-1.8
				s1.7,0.6,1.8,1.5c0.1,1,9.3,103.5,9.3,137.6C87.8-219.8,87.1-219.1,86.1-219.1"/>
			<path id="Path_153" class="st3" d="M120.8-226.2c-0.9,0-1.7-0.7-1.7-1.7v-129.8c0-0.9,0.7-1.7,1.7-1.7c0.9,0,1.7,0.7,1.7,1.7
				v129.8C122.5-227,121.7-226.2,120.8-226.2"/>
			<path id="Path_154" class="st3" d="M139.8-222L139.8-222c-0.9,0-1.7-0.7-1.7-1.7l0,0l0.6-135.4c0-0.9,0.7-1.6,1.7-1.6h0
				c0.9,0,1.6,0.7,1.6,1.7l-0.6,135.4C141.4-222.8,140.7-222,139.8-222"/>
			<path id="Path_155" class="st3" d="M175.4-224.1L175.4-224.1c-1,0-1.7-0.8-1.7-1.7c0,0,0,0,0,0l4.7-138.4c0-0.9,0.8-1.6,1.7-1.6
				c0.9,0,1.6,0.8,1.6,1.7c0,0,0,0,0,0L177-225.7C177-224.8,176.3-224.1,175.4-224.1"/>
			<path id="Path_156" class="st3" d="M158.6-179.6c-16.4,0-21-7.4-21.2-7.7l-0.2-0.4l0.9-35.7c0-0.9,0.8-1.6,1.7-1.6
				c0.9,0,1.6,0.8,1.6,1.7l-0.9,34.7c1.1,1.4,6.5,6.5,21.2,5.7c15.3-0.9,20-4.3,21.2-5.4l-9.2-36.9c-0.2-0.9,0.3-1.8,1.2-2
				s1.8,0.3,2,1.2l9.5,38.3l-0.2,0.5c-0.3,0.7-3.6,6.5-24.3,7.7C160.8-179.6,159.7-179.6,158.6-179.6"/>
			<path id="Path_157" class="st3" d="M102-180c-12.5,0-20-6.1-20.3-6.4l-0.7-0.6l3.5-34c0.1-0.9,0.9-1.6,1.8-1.5s1.6,0.9,1.5,1.8
				l-3.3,32.1c5.7,3.7,12.4,5.5,19.2,5.1c13.4-0.6,19.3-5,20.9-6.4l-5.4-37.9c-0.1-0.9,0.5-1.7,1.4-1.9c0.9-0.1,1.7,0.5,1.9,1.4
				l5.6,39.5l-0.5,0.6c-0.2,0.3-6.2,7.3-23.8,8.1C103.2-180,102.6-180,102-180"/>
			<path id="Path_158" class="st3" d="M105-168c-10.9,0-21.8-5.9-22.3-6.2l-0.8-0.4L81-187l3.3-0.2l0.8,10.6
				c2.8,1.4,12.3,5.7,21.2,5.3c6.5-0.4,12.9-2,18.9-4.7l-0.4-12.6l3.3-0.1l0.4,14.7l-0.9,0.5c-6.6,3.2-13.9,5-21.2,5.5
				C105.9-168,105.4-168,105-168"/>
			<path id="Path_159" class="st3" d="M160.5-168.6c-7.5-0.1-15-1.8-21.8-5l-0.9-0.4l-0.6-13.5l3.3-0.1l0.5,11.6
				c2.8,1.2,12,4.8,22,4.2c7.8-0.6,15.3-2.7,22.2-6.4l-2-8.8l3.2-0.7l2.5,11.2l-1,0.6c-7.6,4.3-16.1,6.8-24.8,7.4
				C162.3-168.7,161.4-168.6,160.5-168.6"/>
			<path id="Path_160" class="st3" d="M144.7-199.9c-0.9,0-1.7-0.7-1.7-1.7c0-0.7,0.5-1.4,1.2-1.6c0,0,2.3-0.8,6.9-4.2
				c2-1.6,3.9-3.5,5.5-5.5c-4.8-0.1-17.3-0.7-21.8-5.7c-1.3-1.4-2-3.3-1.7-5.2c0.4-3.8,2.4-5.4,4-6.1c6.9-2.9,20.2,6.5,23.6,9.1
				c4.1-5.6,11-13.2,17.1-12.8c3,0.2,5.4,2.2,7.1,5.9c1.1,2.1,1,4.6-0.2,6.5c-3.9,6-18.5,6.7-22.4,6.8c-1.4,1.8-5.5,7-9,9.7
				c-5.1,3.8-7.6,4.7-7.9,4.7C145-200,144.9-199.9,144.7-199.9 M140.1-227.2c-0.6,0-1.2,0.1-1.8,0.3c-0.4,0.2-1.6,0.7-2,3.4
				c-0.1,1,0.2,1.9,0.9,2.6c3.5,3.8,15,4.6,20.2,4.7c0.3-0.5,0.8-1.2,1.3-2C153.5-222.1,144.9-227.2,140.1-227.2 M177.2-230.4
				c-4.3,0-10.5,6.7-14.8,12.7c6.7-0.2,17-1.7,19.3-5.3c0.6-1,0.6-2.3,0-3.4c-1.7-3.8-3.6-3.9-4.3-4
				C177.4-230.4,177.3-230.4,177.2-230.4"/>
			<path id="Path_161" class="st3" d="M176.6-204.6c-0.1,0-0.3,0-0.4-0.1c-3-1-6-2.3-8.7-3.9c-2-1.1-7.3-4.7-7.6-4.9
				c-0.8-0.5-1-1.5-0.4-2.3c0.5-0.8,1.5-1,2.3-0.4c0.1,0,5.4,3.7,7.3,4.7c2.5,1.5,5.2,2.7,8,3.6c0.9,0.2,1.4,1.2,1.2,2
				C178-205.1,177.4-204.6,176.6-204.6"/>
			<path id="Path_162" class="st3" d="M149.2-192.2c-0.9,0-1.7-0.7-1.7-1.7c0-0.6,0.3-1.2,0.9-1.5c4.4-2.2,9.2-3.5,14.1-4
				c9.8-0.8,14.9,1.1,15.1,1.2c0.8,0.3,1.3,1.3,0.9,2.2c-0.3,0.8-1.3,1.2-2.1,0.9c0,0-4.7-1.7-13.7-1c-4.5,0.4-8.8,1.7-12.8,3.6
				C149.7-192.3,149.5-192.2,149.2-192.2"/>
			<path id="Path_163" class="st3" d="M144.9-226.2c-0.8,0-1.5-0.6-1.6-1.3c-0.8-3.8-2.3-12.9,0.1-15.5c4.6-5.2,23.5-5.3,28.4-1.3
				c2.9,2.4,1.2,11.3,0.4,15c-0.2,0.9-1.1,1.4-2,1.2c-0.9-0.2-1.4-1.1-1.2-2c1.2-5.2,1.6-10.8,0.7-11.7c-3.9-3.2-20.8-2.5-23.8,0.9
				c-0.8,1-0.4,6.9,0.7,12.7c0.2,0.9-0.4,1.8-1.3,1.9c0,0,0,0,0,0C145.2-226.2,145.1-226.2,144.9-226.2"/>
			<path id="Path_164" class="st3" d="M91.2-199.4c-0.9,0-1.7-0.7-1.7-1.6c0-0.9,0.6-1.6,1.5-1.7c0,0,2.3-0.4,6.2-3
				c1.8-1.4,3.4-3.1,4.7-5c-6.9,1-20.4,2-25-3.4c-1.8-2.2-2.1-5-0.8-8.4c0.6-1.7,2-3,3.7-3.5c7-2,21,7.5,25.4,10.7
				c2.9-3.9,10.8-13.9,17.5-14.5c1.9-0.2,3.8,0.5,5.2,1.9c3.2,3.2,4.3,6.2,3.2,8.8c-2.8,6.9-19.7,7.9-25,8.1c-1.1,1.8-3.9,6-7,8.1
				c-4.6,3.1-7.4,3.5-7.7,3.6C91.4-199.4,91.3-199.4,91.2-199.4 M82.1-223c-0.4,0-0.9,0-1.3,0.2c-0.7,0.2-1.3,0.7-1.5,1.4
				c-1.3,3.3-0.1,4.7,0.2,5.1c3.3,3.9,14.8,3.3,22,2.3C95.2-218.2,86.7-223,82.1-223 M123.5-226.5c-0.1,0-0.2,0-0.4,0
				c-4.4,0.4-10.7,7.4-14.3,12c8.2-0.5,17.9-2.5,19.3-5.9c0.7-1.6-1-3.8-2.5-5.2C125.1-226.2,124.3-226.5,123.5-226.5"/>
			<path id="Path_165" class="st3" d="M119.9-202c-0.1,0-0.1,0-0.2,0c-0.3,0-6.9-0.8-11.2-3.8c-1.8-1.3-3.4-2.9-4.8-4.6
				c-0.6-0.7-0.4-1.8,0.3-2.3c0.7-0.5,1.7-0.4,2.3,0.3c1.2,1.5,2.6,2.8,4.1,3.9c3.6,2.5,9.6,3.3,9.7,3.3c0.9,0.1,1.6,0.9,1.5,1.8
				C121.5-202.7,120.7-202,119.9-202"/>
			<path id="Path_166" class="st3" d="M93.3-194.2c-0.9,0-1.7-0.7-1.7-1.7c0-0.4,0.1-0.8,0.4-1c0.2-0.3,5.2-6.3,13.3-6.6
				c4.5,0,8.9,1.1,12.8,3.3c0.8,0.5,1,1.5,0.6,2.3c-0.5,0.8-1.5,1-2.3,0.6c-3.4-1.8-7.1-2.8-11-2.9c-6.5,0.3-10.8,5.4-10.8,5.4
				C94.2-194.4,93.8-194.2,93.3-194.2"/>
			<path id="Path_167" class="st3" d="M91-221.3c-0.8,0-1.5-0.6-1.6-1.4c-0.5-3-2-13,0.2-16c2.8-3.7,9.5-4.5,12.2-4.6
				c5-0.3,12,0.6,15.2,3.9c2.9,3,1.3,11.9,0.8,14.6c-0.2,0.9-1,1.5-1.9,1.3c-0.9-0.2-1.5-1-1.3-1.9c0,0,0,0,0-0.1
				c0.9-4.7,1.2-10.5,0.1-11.6c-1.9-2-7.1-3.2-12.6-2.9c-4.7,0.3-8.4,1.5-9.8,3.3c-0.9,1.2-0.6,7.9,0.4,13.4
				c0.2,0.9-0.5,1.8-1.4,1.9C91.2-221.3,91.1-221.3,91-221.3"/>
			<path id="Path_168" class="st3" d="M67.5-468.3c0,0-6.5,28.6-9,44.7c-2.8,18.4-4.3,52.3-4.3,52.3c-0.4,6.4,4.5,11.9,10.8,12.2
				c0,0,0,0,0,0c0,0,41.5,2.2,66.3,1.4c29.5-1,61.3-8.3,61.3-8.3c5.2-0.9,8.7-5.9,7.8-11.1c0-0.1-0.1-0.3-0.1-0.4
				c0,0-6.5-36.9-9.8-49.3c-3-11.4-15.2-46-15.2-46s-34.3,5.3-55.8,6.3C102.2-465.9,84.8-466.5,67.5-468.3"/>
			<path id="Path_169" class="st3" d="M69.1-466.5L69.1-466.5c-1,0-1.7-0.8-1.7-1.7c0,0,0,0,0,0c0-0.7,2.3-65.6-0.4-86.6
				c-1.5-11.5-11.3-44.7-12-47.2l-26.4-49.8c-0.4-0.8-0.1-1.8,0.7-2.2c0,0,0.1,0,0.1-0.1L66.3-670c0.8-0.4,1.8,0,2.2,0.9
				c0,0.1,0.1,0.1,0.1,0.2c0.1,0.4,10.9,37.4,20.3,44.3c2.1,1.5,12.4,1.6,19,1.1c0.6,0,1.1,0.2,1.5,0.7c3.5,4.6,8.9,7.3,14.7,7.3
				c12.6,0,17.9-8,18.1-8.3c0.3-0.5,0.9-0.8,1.5-0.8c3.3,0.1,32.6,1.6,39.2,9.8c10.3,13,12.9,68.4,13,70.7c0,0.6-0.3,1.2-0.8,1.5
				c-3,1.8-6.4,2.9-9.9,3.3c-4.7,0.5-9.5,0.2-14.1-0.9c0.3,8.7,0.6,17.5,0.9,22.2c0.8,10.9,3.6,47,3.6,47.4c0.1,0.9-0.6,1.7-1.5,1.8
				c-0.9,0.1-1.7-0.6-1.8-1.5l0,0c0-0.4-2.9-36.5-3.6-47.4c-0.8-11.8-1.6-47.2-1.6-47.6c0-0.9,0.7-1.7,1.6-1.7
				c0.9,0,1.7,0.7,1.7,1.6l0.6,21.8c4.5,1.1,9.2,1.4,13.8,1c2.7-0.3,5.3-1.1,7.7-2.3c-0.4-7.7-3.4-56.6-12.3-67.8
				c-4.6-5.8-26.6-8.1-35.8-8.5c-1.8,2.4-8.1,9-20.3,9c-6.5,0-12.7-3-16.9-8c-4.2,0.2-16.8,0.8-20.3-1.8c-9.2-6.8-18.7-36.5-21-44.3
				l-33.4,14.4l25.6,48.4c0.1,0.1,0.1,0.2,0.1,0.3c0.4,1.5,10.6,35.7,12.2,47.9c2.7,21.3,0.5,84.4,0.4,87.1
				C70.8-467.2,70-466.5,69.1-466.5"/>
			<path id="Path_170" class="st3" d="M122.9-548.9c-4.3,0-8.8,0.6-10.5,7.2c-1.6,6.6,5.7,12.4,9.7,12.1c3.1-0.2,9.3-3,9.7-9
				C132.1-543,127.8-548.9,122.9-548.9"/>
			<path id="Path_171" class="st3" d="M123.5-501c-1,0-2-0.4-2.7-1.2c-1.7-1.8-2.5-5.7-2.8-10c-1.3,4.3-3.1,8.1-5.8,9.6
				c-2,1.1-4.5,1.1-6.4-0.2c-1.3-0.7-2.2-1.9-2.4-3.3c-0.8-3.5,1.4-9.1,4.1-14.3c-3.9,3.8-8.3,7.1-12,7.1h-0.1c-2,0-3.9-1.1-5-2.9
				c-0.8-1.3-1.1-2.8-0.6-4.3c1.2-4,7.1-8.3,12.8-11.6c-6.7,1.6-14.3,2.5-18.5-0.1c-1.8-1.1-3-3.1-3.1-5.2c-0.2-1.5,0.4-3,1.6-4
				c3.4-3,12.2-2.8,19.6-2c-7-3-15.1-7.4-16.7-12.4c-0.7-2.1-0.2-4.3,1.2-6c1.2-1.6,3.1-2.6,5.2-2.6h0.1c4.4,0,9.9,3.8,14.6,7.9
				c-3.4-5.6-6.2-11.9-5.2-16c0.5-1.9,1.8-3.4,3.7-4.1c1.4-0.6,2.9-0.4,4.2,0.3c3.7,2.2,6.3,9.9,7.8,16.6c0.5-6.8,1.8-14.6,5-18
				c1-1.1,2.5-1.8,4-1.8c1.7-0.1,3.2,0.7,4.1,2.1c2.3,3.4,0.9,10.8-1.1,17.3c3.5-5.2,8-10.4,12.2-11.3c1.9-0.4,3.8,0.1,5.3,1.4
				c2,1.5,3,3.9,2.8,6.4c-0.5,5.1-6,10.5-11.2,14.6c5.8-2.1,12.5-3.8,16.2-2.2c1.2,0.5,2.2,1.5,2.6,2.8c0.7,2,0.4,4.2-0.9,5.8
				c-2.1,2.7-6.7,4.1-11.4,4.8c4.2,0.9,8.1,2.3,9.9,4.4c0.9,1,1.3,2.4,1.1,3.8c-0.2,1.7-1.2,3.3-2.8,4c-4.2,2-12-0.6-17.8-3.2
				c4.4,4.5,9.6,10.9,9.2,16.2c-0.2,2.6-1.7,4.6-4.4,6.1c-1.5,0.8-3.2,0.9-4.8,0.2c-3-1.4-5.6-5.6-7.6-10.2
				c0.6,5.7,0.6,11.3-1.2,13.8c-0.6,0.8-1.5,1.4-2.5,1.4C123.6-501,123.5-501,123.5-501 M120.1-523.7c-0.4,7.6-0.3,17.4,2.2,20
				c0.3,0.4,0.7,0.5,1.2,0.5c0.4,0,0.7-0.2,0.9-0.5c2.8-3.8-0.3-20.4-1.8-26.8l-0.1-0.2l2.1-0.5c0,0.1,0,0.2,0.1,0.3
				c1.4,5.9,5.9,20.5,11.1,22.9c0.9,0.4,2,0.4,2.8-0.1c2-1.1,3.1-2.5,3.2-4.3c0.5-6.4-10.1-16.4-14.3-19.7l1.2-1.8
				c4.7,2.6,18.1,9,22.9,6.6c0.9-0.5,1.5-1.4,1.6-2.4c0.1-0.7-0.1-1.5-0.6-2c-3-3.6-14.4-4.9-20.6-5.2c-1.3,0-2.1-0.1-2.3-0.1
				l0.1-2.2c0.2,0,1,0,2.3,0.1c6.6,0.2,18.7-0.4,22-4.6c0.8-1.1,1-2.5,0.6-3.8c-0.2-0.7-0.7-1.2-1.4-1.4c-5-2.1-19.4,4-24.5,6.5
				l-1-1.9c0.2-0.1,18.5-10.8,19.2-19.1c0.2-1.8-0.6-3.5-2-4.5c-0.9-0.8-2.2-1.2-3.4-0.9c-6.3,1.3-14.6,15.9-17.2,21.4l-2-0.9
				c2.6-6,8.8-22.7,5.7-27.4c-0.5-0.8-1.4-1.2-2.3-1.1c-0.9,0-1.8,0.4-2.4,1.1c-4.5,4.7-4.8,21.7-4.6,27.9l-2.2,0.2
				c-0.8-6.3-3.8-23.4-8.7-26.4c-0.7-0.4-1.5-0.5-2.2-0.2c-1.2,0.4-2.1,1.4-2.3,2.6c-1.6,6.3,8.7,20.5,13.1,25.8
				c0.1,0.2,0.2,0.3,0.3,0.3l-1.7,1.4l-0.1-0.1c-1.4-1.6-15-17.7-23.1-17.7h-0.1c-1.4,0-2.6,0.6-3.5,1.7c-1,1.1-1.3,2.6-0.8,3.9
				c2.1,6.6,19.8,13.1,26.5,15.1l-0.5,2.1c-6.7-1.5-25.1-4.4-29.5-0.5c-0.6,0.5-0.9,1.3-0.8,2.1c0.1,1.5,0.9,2.8,2.1,3.5
				c6,3.7,23-1.6,29-4l0.8,2c-5.8,2.5-21.4,10.3-23.2,16.1c-0.3,0.8-0.2,1.7,0.3,2.4c0.6,1.1,1.8,1.9,3.1,1.9h0.1
				c5.8,0,15.3-11.3,19.5-16.9c0.5-0.6,0.8-1,0.8-1.2l1.8,1.3c-0.1,0.1-0.4,0.5-0.8,1.1c-4.2,5.9-12.5,19.1-11.2,24.6
				c0.1,0.8,0.6,1.5,1.3,1.8c1.3,0.9,2.9,0.9,4.3,0.2c3.9-2.3,5.9-11.6,6.9-19.1c0.2-3.9,0.5-7,0.6-7.8l2.2,0.2
				C120.7-531,120.6-527.8,120.1-523.7"/>
			<path id="Path_172" class="st0" d="M77.4-875.4c-2.3,0-4.7,0.3-5.5,3.8c-0.9,3.5,3,6.5,5.1,6.4c1.6-0.1,4.9-1.6,5.1-4.7
				C82.3-872.3,80-875.4,77.4-875.4"/>
			<path id="Path_173" class="st0" d="M77.7-850.2c-0.5,0-1-0.2-1.4-0.6c-0.9-1-1.3-3.1-1.5-5.4c-0.7,2.3-1.7,4.4-3.1,5.2
				c-1.1,0.6-2.3,0.6-3.4-0.1c-0.7-0.4-1.1-1-1.3-1.7c-0.4-1.9,0.8-4.9,2.2-7.7c-2.1,2.1-4.5,3.9-6.5,3.9h0c-1.1,0-2.1-0.6-2.6-1.5
				c-0.4-0.7-0.6-1.5-0.3-2.2c0.6-2.2,3.9-4.5,6.9-6.2c-3.6,0.9-7.7,1.4-9.9,0c-1-0.6-1.6-1.6-1.6-2.7c-0.1-0.8,0.2-1.6,0.8-2.1
				c1.8-1.6,6.6-1.5,10.6-1c-3.8-1.6-8.1-3.9-9-6.6c-0.4-1.1-0.1-2.3,0.6-3.1c0.6-0.9,1.6-1.4,2.7-1.3h0.1c2.4,0,5.3,2.1,7.9,4.3
				c-1.8-3-3.4-6.4-2.8-8.6c0.2-1,1-1.8,1.9-2.1c0.7-0.3,1.5-0.2,2.2,0.2c2,1.2,3.3,5.3,4.2,9c0.2-3.6,0.9-7.9,2.6-9.7
				c0.5-0.6,1.3-0.9,2.1-0.9c0.9,0,1.7,0.4,2.2,1.1c1.2,1.8,0.4,5.8-0.6,9.3c1.9-2.8,4.3-5.7,6.6-6.1c1-0.2,2,0,2.8,0.7
				c1,0.8,1.6,2.1,1.5,3.3c-0.2,2.7-3.3,5.6-6,7.8c3.1-1.1,6.7-2.1,8.7-1.2c0.6,0.3,1.1,0.8,1.3,1.5c0.4,1,0.2,2.2-0.5,3
				c-1.1,1.4-3.6,2.2-6.2,2.5c2.3,0.5,4.4,1.2,5.4,2.4c0.5,0.5,0.7,1.3,0.6,2c-0.1,0.9-0.7,1.7-1.5,2.1c-2.2,1.1-6.5-0.4-9.5-1.7
				c2.4,2.4,5.2,5.8,5,8.7c-0.1,1.4-1,2.6-2.3,3.2c-0.8,0.4-1.7,0.5-2.5,0.1c-1.6-0.7-3-3-4.1-5.5c0.3,3.1,0.4,6.1-0.6,7.4
				c-0.3,0.4-0.8,0.7-1.3,0.7C77.8-850.2,77.8-850.2,77.7-850.2 M75.9-862.1c-0.2,4-0.1,9.2,1.2,10.6c0.2,0.2,0.4,0.3,0.6,0.3
				c0.2,0,0.4-0.1,0.5-0.3c1.5-2-0.2-10.8-0.9-14.2c0-0.1,0-0.1,0-0.1l1.1-0.3c0,0,0,0.1,0,0.2c0.7,3.1,3.1,10.9,5.9,12.1
				c0.5,0.2,1.1,0.2,1.5-0.1c0.9-0.4,1.6-1.3,1.7-2.3c0.4-4.1-7.5-10.3-7.5-10.4l0.6-0.9c2.5,1.4,9.6,4.8,12.1,3.5
				c0.5-0.2,0.8-0.7,0.9-1.3c0.1-0.4-0.1-0.8-0.3-1.1c-1.6-1.9-7.6-2.6-10.9-2.8c-0.7,0-1.1,0-1.2,0l0-1.1c0.1,0,0.5,0,1.2,0
				c3.5,0.1,9.9-0.2,11.6-2.4c0.4-0.6,0.6-1.3,0.3-2c-0.1-0.4-0.4-0.6-0.7-0.8c-2.6-1.1-10.2,2.1-13,3.4l-0.5-1
				c0.1-0.1,9.8-5.7,10.2-10.1c0.1-0.9-0.3-1.8-1.1-2.4c-0.5-0.5-1.2-0.6-1.8-0.5c-3.4,0.7-7.7,8.4-9.1,11.3l-1-0.5
				c1.4-3.2,4.7-12,3-14.5c-0.3-0.4-0.7-0.6-1.2-0.6c-0.5,0-1,0.2-1.3,0.6c-2.9,3-2.4,14.6-2.4,14.8l-1.1,0.1
				c-0.4-3.3-2-12.4-4.6-13.9c-0.4-0.2-0.8-0.3-1.2-0.1c-0.6,0.2-1.1,0.7-1.3,1.4c-0.8,3.3,4.6,10.8,6.9,13.7
				c0.1,0.1,0.1,0.1,0.1,0.2l-0.8,0.7l-0.1-0.1c-0.7-0.9-7.9-9.3-12.2-9.3h0c-0.7,0-1.4,0.3-1.8,0.9c-0.5,0.6-0.7,1.4-0.5,2.1
				c1.1,3.5,10.5,6.9,14,8l-0.3,1.1c-3.5-0.8-13.3-2.3-15.6-0.3c-0.3,0.3-0.5,0.7-0.5,1.2c0,0.8,0.5,1.5,1.1,1.9
				c3.2,2,12.1-0.8,15.3-2.1l0.4,1c-3.1,1.3-11.3,5.4-12.2,8.5c-0.2,0.4-0.1,0.9,0.2,1.3c0.3,0.6,1,1,1.7,1h0c3.1,0,8.1-6,10.3-8.9
				c0.2-0.3,0.4-0.6,0.4-0.6l0.9,0.6c0,0.1-0.2,0.3-0.4,0.6c-2.2,3.1-6.6,10.1-5.9,13c0.1,0.4,0.3,0.8,0.7,1
				c0.7,0.5,1.6,0.5,2.3,0.1c2.1-1.2,3.2-6.2,3.6-10.1c0.1-2,0.3-3.7,0.3-4.1l1.1,0.1C76.2-865.9,76.2-864.3,75.9-862.1"/>
			<path id="Path_174" class="st3" d="M197.7-383.4c-0.9,0-1.7-0.7-1.7-1.7c0-0.2,0-0.4,0.1-0.6c1.5-4.2,5.4-16.1,5.5-20.3
				c-0.2-2.7-0.7-5.3-1.4-7.8c-0.6-2.3-1.1-4.6-1.4-7c-0.1-2.3-0.3-5.1-0.4-7.9c-0.3-5.6-0.6-12-1.1-16.6
				c-0.8-7.1-4.7-51.5-4.7-54.3c0-18.5-0.8-43.7-0.8-43.9c0-0.9,0.7-1.7,1.6-1.7c0.9,0,1.7,0.7,1.7,1.6c0,0.3,0.8,25.5,0.8,44
				c0,2.2,3.8,46.1,4.7,53.9c0.5,4.7,0.8,11.1,1.1,16.8c0.1,2.9,0.3,5.6,0.4,7.9c0.3,2.2,0.7,4.3,1.3,6.4c0.8,3.1,1.6,6.4,1.5,8.7
				c-0.1,5.6-5.4,20.7-5.7,21.3C199-383.8,198.4-383.4,197.7-383.4"/>
			<path id="Path_175" class="st3" d="M107.7-621.1c-0.2,0-0.4,0-0.6-0.1c-0.9-0.3-1.3-1.3-1-2.1c1.1-2.8,2-5.7,2.7-8.6
				c0.2-2.6,0.1-5.2-0.5-7.8l-0.6-2.3l2.3,0.3c4.2,0.5,8.3,0.6,12.5,0.5c4.5-0.5,8.9-1.2,13.3-2.1l1.8-0.4l0.2,1.9
				c0.2,2.7,0.6,5.5,1.2,8.1c1.4,3.4,3.3,6.5,5.6,9.3c0.6,0.7,0.6,1.7-0.1,2.3c-0.7,0.6-1.7,0.6-2.3-0.1c0,0,0,0,0,0
				c-2.7-3.1-4.8-6.6-6.3-10.4c-0.6-2.3-1-4.7-1.2-7.1c-3.9,0.8-7.9,1.4-11.9,1.8c-3.6,0.1-7.3,0-10.9-0.3c0.4,2.2,0.4,4.5,0.1,6.7
				c-0.3,2.4-2.6,8.6-2.9,9.3C109.1-621.5,108.4-621.1,107.7-621.1"/>
			<path id="Path_176" class="st3" d="M111.6-638.2c-0.1,0-0.3,0-0.4-0.1c-1-0.3-24.1-6.5-33.8-20.9c-9.1-13.6-14-32.2-14.2-33
				l-0.3-1.1l0.9-0.7C64-694,77.5-704,85.6-712.1c5.9-5.9,24.7-26.2,24.9-26.4l1.1-1.2l1.2,1.1c0.2,0.2,19,16.9,25.9,20.9
				c15,8.5,35.2,14,35.4,14.1l1.2,0.3l0,1.3c0,0.8-0.5,19.7-7.4,34.5c-9.9,21.2-30.8,27.3-31.6,27.6c-0.9,0.2-1.8-0.3-2-1.1
				c-0.2-0.9,0.3-1.8,1.1-2l0,0c0.2-0.1,20.3-6,29.5-25.8c5.6-12.1,6.8-27.5,7.1-31.9c-4.7-1.4-21.5-6.4-34.9-14
				c-6.2-3.5-20.9-16.3-25.2-20.2c-4.1,4.5-18.8,20.2-23.9,25.3c-7.1,7.1-17.9,15.4-21.1,17.8c1.2,4.2,5.8,19.6,13.4,30.9
				c9,13.4,31.6,19.4,31.9,19.5c0.9,0.2,1.4,1.1,1.2,2C113-638.7,112.4-638.2,111.6-638.2"/>
			<path id="Path_177" class="st3" d="M125.6-663.2c-1.3,0-2.5-0.3-3.6-1c-0.8-0.5-1-1.5-0.5-2.3c0.5-0.7,1.5-1,2.2-0.5
				c0.3,0.2,2.7,1.5,6-1.5c1.3-1.3,2.2-3,2.5-4.8c0.2-0.9,1-1.5,1.9-1.3c0.9,0.2,1.5,1,1.3,1.9l0,0c-0.5,2.5-1.7,4.9-3.6,6.7
				C130.3-664.3,128-663.3,125.6-663.2"/>
			<path id="Path_178" class="st3" d="M112.7-680.6c-0.9,0-1.7-0.7-1.7-1.7c0-0.1,0-0.2,0-0.3c0-0.3,0.6-3.1,4.9-5.8
				c2.1-1.2,4.6-1.5,6.9-0.7c0.9,0.3,1.3,1.2,1,2.1c-0.3,0.9-1.2,1.3-2.1,1c0,0-0.1,0-0.1,0c-1.3-0.4-2.8-0.3-4,0.4
				c-2.9,1.8-3.4,3.5-3.4,3.5C114.2-681.1,113.5-680.6,112.7-680.6"/>
			<path id="Path_179" class="st3" d="M67-690.2c-0.9,0-1.7-0.7-1.7-1.6c0-0.9,0.6-1.6,1.5-1.7l10.2-1c0.9-0.1,1.7,0.6,1.8,1.5
				s-0.6,1.7-1.5,1.8l-10.2,1C67.1-690.2,67-690.2,67-690.2"/>
			<path id="Path_180" class="st3" d="M156.5-696.1c-0.9,0-1.7-0.7-1.7-1.7c0-0.8,0.6-1.5,1.4-1.6l15.6-2c0.9-0.1,1.7,0.5,1.9,1.4
				c0.1,0.9-0.5,1.7-1.4,1.9l0,0l-15.6,2C156.6-696.1,156.5-696.1,156.5-696.1"/>
			<path id="Path_181" class="st3" d="M84.9-682.7c-3.8,0-7-3-7.3-6.8l0-11.3c0-0.6,0.5-1.1,1.1-1.1h0l0,0c0.6,0,1.1,0.5,1.1,1.1
				l0,0l0,11.2c0.2,2.6,2.4,4.7,5.1,4.7h0l13.7,0c2.6,0,4.8-2,5-4.6l0.2-12.1c0-0.6,0.5-1.1,1.1-1.1h0c0.6,0,1.1,0.5,1.1,1.1
				c0,0,0,0,0,0l-0.2,12.2c-0.3,3.8-3.5,6.6-7.2,6.6L84.9-682.7L84.9-682.7z"/>
			<path id="Path_182" class="st3" d="M135.8-685.3c-3.4,0-6.2-2.5-6.7-5.8l-1.3-10.6c-0.1-0.6,0.4-1.2,1-1.2c0.6-0.1,1.2,0.4,1.2,1
				l1.3,10.5c0.4,2.3,2.4,4,4.8,3.9l14.1-0.2c2.5-0.1,4.5-2.2,4.4-4.8l-0.3-10.6c0-0.6,0.5-1.1,1.1-1.1c0,0,0,0,0,0h0
				c0.6,0,1.1,0.5,1.1,1.1l0.3,10.6c0.1,3.7-2.8,6.8-6.5,7l-14.1,0.2C136-685.3,135.9-685.3,135.8-685.3"/>
			<path id="Path_183" class="st3" d="M105.6-694.9l-0.5-3.3l0.9-0.1c2.3-0.3,5.3-0.8,9.7-1.1c3.6-0.3,7.3-0.3,10.9,0.1
				c0.9,0.1,1.8,0.2,2.8,0.2v3.3c-1,0-2.1-0.1-3.1-0.2c-3.4-0.4-6.9-0.4-10.3-0.1c-4.2,0.3-7.2,0.8-9.4,1.1L105.6-694.9z"/>
			<path id="Path_184" class="st3" d="M77.5-699.6c-0.9,0-1.7-0.7-1.7-1.6c0-0.7,0.4-1.3,1.1-1.6c4-1.4,8.1-2.2,12.3-2.5
				c5.7-0.3,11.4,0.3,16.8,1.9c0.9,0.3,1.3,1.2,1,2.1c-0.3,0.8-1.2,1.3-2,1.1c-5.1-1.4-10.3-2-15.6-1.7c-3.8,0.3-7.6,1-11.3,2.3
				C77.9-699.7,77.7-699.6,77.5-699.6"/>
			<path id="Path_185" class="st3" d="M127.1-701.1c-0.9,0-1.7-0.7-1.7-1.7c0-0.7,0.5-1.4,1.2-1.6c10.2-2.7,20.9-2.8,31.1-0.3
				c0.9,0.2,1.4,1.1,1.2,2c-0.2,0.9-1.1,1.4-2,1.2l0,0c-9.6-2.4-19.7-2.3-29.3,0.3C127.4-701.1,127.3-701.1,127.1-701.1"/>
			<path id="Path_186" class="st3" d="M139-696.5c0-2.4,1.4-4.3,3.2-4.3c1.8,0,3.2,1.9,3.2,4.3s-1.4,4.3-3.2,4.3
				C140.5-692.3,139-694.2,139-696.5"/>
			<path id="Path_187" class="st3" d="M89.7-694.7c0-2.4,1.4-4.3,3.2-4.3s3.2,1.9,3.2,4.3c0,2.4-1.4,4.3-3.2,4.3
				S89.7-692.3,89.7-694.7"/>
			<path id="Path_188" class="st0" d="M37.7-654.2c-0.8,0-1.5-0.6-1.6-1.4c-0.1-0.5-8.7-52.1-12.8-89c-2.1-19.4-2.9-55.4-2.9-55.8
				c0-1.4-0.4-33.7,2.9-44.2c2.3-7.5,14.9-25,15.4-25.8l2.5-3.5l4.8,44.2c1.6-1.1,3.3-2,5.1-2.8l0.5-0.2c3.7-1.4,11.3-4.3,15.2,0.5
				c2.8,3.5-2.1,7.8-6,11.2c-1.1,0.9-2.1,1.8-3,2.9c-1.1,2.1-1.9,4.3-2.4,6.7c-0.5,2-1.1,3.9-2,5.8c-1.8,3.6-6,11-7.2,13l11.2,71.4
				c0.2,0.9-0.4,1.8-1.3,1.9c-0.9,0.2-1.8-0.4-1.9-1.3c0,0,0-0.1,0-0.1l-11.4-72.6l0.3-0.5c0.1-0.1,5.4-9.3,7.4-13.3
				c0.7-1.7,1.3-3.4,1.7-5.2c0.6-2.6,1.5-5.1,2.7-7.4c1-1.4,2.3-2.6,3.7-3.7c4.3-3.7,6.2-6,5.6-6.6c-2.4-3-8.5-0.6-11.5,0.5
				l-0.5,0.2c-2.3,1.1-4.6,2.5-6.7,3.9l-2.3,1.6l-4.5-41c-3.8,5.6-10.9,16.2-12.4,21.2c-3.1,9.9-2.7,42.8-2.7,43.1
				c0,0.3,0.8,36.2,2.9,55.5c4.1,36.8,12.6,88.3,12.7,88.8c0.1,0.9-0.5,1.8-1.4,1.9C37.9-654.2,37.8-654.2,37.7-654.2"/>
			<path id="Path_189" class="st0" d="M55-811.1c-0.9,0-1.7-0.7-1.6-1.7c0-0.8,0.6-1.5,1.4-1.6l61.5-11c-0.8-15.7-2.5-31.4-5.2-46.9
				c-1.2-6.5-9.9-32.4-10-32.7l-0.1-0.3l-1.5-8.9l-58.1,10.3L43-896l-1.1,29.1c0,0.9-0.8,1.6-1.7,1.6c0,0,0,0,0,0
				c-0.9,0-1.6-0.8-1.6-1.7c0,0,0,0,0,0l1.1-28.7l-2.2-10.8l64.8-11.5l2,12.1c0.8,2.2,8.9,26.5,10.1,33c2.8,16.2,4.5,32.5,5.3,48.8
				l0.1,1.4l-64.4,11.5C55.2-811.1,55.1-811.1,55-811.1"/>
			<path id="Path_190" class="st0" d="M48.9-895.6c-0.9,0-1.7-0.7-1.7-1.7c0-0.8,0.6-1.5,1.4-1.6l46.8-8.8c0.9-0.2,1.8,0.4,1.9,1.3
				c0.2,0.9-0.4,1.8-1.3,1.9l0,0l-46.8,8.8C49.1-895.6,49-895.6,48.9-895.6"/>
			<path id="Path_191" class="st0" d="M96.1-839.8c-1.1-0.3-3.4,1.7-3.6,2.9c-0.2,1.3,0.6,4.6,1.8,4.9c1.2,0.3,2.7-2.1,3-3.3
				C97.8-836.6,97.4-839.4,96.1-839.8"/>
			<path id="Path_192" class="st0" d="M105.2-861c-1.1-0.3-3.4,1.7-3.6,2.9c-0.2,1.3,0.6,4.6,1.8,4.9c1.2,0.3,2.7-2.1,3-3.3
				C106.8-857.8,106.5-860.6,105.2-861"/>
			<path id="Path_193" class="st0" d="M102-846.3c-0.7,0.9,0.4,3.8,1.4,4.4c1.1,0.6,4.5,1.1,5.3,0c0.7-1-1-3.3-2-4
				C105.6-846.8,102.8-847.5,102-846.3"/>
			<path id="Path_194" class="st0" d="M83.1-839.5c-0.9,0.7-0.8,3.8,0,4.6c0.9,1,3.9,2.5,5,1.7c0.9-0.7,0.1-3.4-0.6-4.4
				C86.6-838.8,84.2-840.4,83.1-839.5"/>
			<path id="Path_195" class="st0" d="M97.3-848.9c-0.7-0.9-3.8-0.7-4.6,0c-1,0.9-2.4,4-1.6,5c0.8,0.9,3.4,0,4.4-0.7
				C96.6-845.4,98.1-847.8,97.3-848.9"/>
			<path id="Path_196" class="st3" d="M110.9-639.9c0,0-26.7-10.5-31.1-19c-4.4-8.4-16.3-34.5-16.3-34.5l24.5-18.6l22.7-24.8
				l23.5,18.9l39.9,16.4c0,0-7.1,37.3-15.3,44.9c-6.1,5.7-24,15.8-24,15.8s1.1,11.9,1.6,16c0.5,4.5,1.4,17.5,2.8,23.2
				c2.1,8.2,3.8,19.7,22.1,20.6c32.3,1.6,28.8-19.5,28.6-23c-0.9-22.9,4.9-100.5-16.1-134.4c-14.4-23.3-47.5-29-64.9-27.8
				c-19.2,1.3-44.2,15.5-51.8,33.7c-6.7,16.2-4.8,71.8-4.8,71.8l15.3-7.9l8.1,24.4l11.3,20l20.8,1.9l2.6-8.7L110.9-639.9z"/>
			<path id="Path_322" class="st3" d="M37.7-654.2c-0.8,0-1.5-0.6-1.6-1.4c-0.1-0.5-8.7-52.1-12.8-89c-2.1-19.4-2.5-37.5-2.5-37.5
				h3.4c0,0,0.2,17.9,2.3,37.2c4.1,36.8,12.6,88.3,12.7,88.8c0.1,0.9-0.5,1.8-1.4,1.9C37.9-654.2,37.8-654.2,37.7-654.2"/>
			<path id="Path_323" class="st3" d="M47.9-782.1l9.6,60.9c0.2,0.9-0.4,1.8-1.3,1.9c-0.9,0.2-1.8-0.4-1.9-1.3c0,0,0-0.1,0-0.1
				l-9.6-61.4"/>
		</g>
	</g>
</g>
<g id="Group_140" transform="translate(1010 969)">
	<g>
		<defs>
			<rect id="SVGID_00000077316262662536380800000011518276248286664577_" x="0.4" y="-918.1" width="236.1" height="749.1"/>
		</defs>
		<clipPath id="SVGID_00000106848065953539649220000017470546112923501957_">
			<use xlink:href="#SVGID_00000077316262662536380800000011518276248286664577_"  style="overflow:visible;"/>
		</clipPath>
		<g id="Group_139" style="clip-path:url(#SVGID_00000106848065953539649220000017470546112923501957_);">
			<path id="Path_197" class="st3" d="M100.3-220.1c-0.9,0-1.7-0.7-1.7-1.7c0-34-9.2-136.3-9.3-137.3c-0.1-0.9,0.6-1.7,1.5-1.8
				s1.7,0.6,1.8,1.5c0.1,1,9.3,103.5,9.3,137.6C101.9-220.8,101.2-220.1,100.3-220.1"/>
			<path id="Path_198" class="st3" d="M134.9-227.3c-0.9,0-1.7-0.7-1.7-1.7v-129.8c0-0.9,0.7-1.7,1.7-1.7c0.9,0,1.7,0.7,1.7,1.7
				v129.8C136.6-228,135.9-227.3,134.9-227.3"/>
			<path id="Path_199" class="st3" d="M153.9-223.1L153.9-223.1c-0.9,0-1.7-0.7-1.7-1.7l0,0l0.6-135.4c0-0.9,0.7-1.6,1.7-1.6h0
				c0.9,0,1.6,0.7,1.6,1.7l-0.6,135.4C155.6-223.8,154.8-223.1,153.9-223.1"/>
			<path id="Path_200" class="st3" d="M189.5-225.1L189.5-225.1c-1,0-1.7-0.8-1.7-1.7c0,0,0,0,0,0l4.7-138.4c0-0.9,0.8-1.6,1.7-1.6
				c0.9,0,1.6,0.8,1.6,1.7c0,0,0,0,0,0l-4.7,138.4C191.1-225.8,190.4-225.1,189.5-225.1"/>
			<path id="Path_201" class="st3" d="M172.7-180.6c-16.4,0-21-7.4-21.2-7.7l-0.2-0.4l0.9-35.7c0-0.9,0.8-1.6,1.7-1.6
				c0.9,0,1.6,0.8,1.6,1.7l-0.9,34.7c1.1,1.4,6.5,6.5,21.2,5.7c15.3-0.9,20-4.3,21.2-5.4l-9.2-36.9c-0.2-0.9,0.3-1.8,1.2-2
				s1.8,0.3,2,1.2l9.5,38.3l-0.2,0.5c-0.3,0.7-3.6,6.5-24.3,7.7C174.9-180.6,173.8-180.6,172.7-180.6"/>
			<path id="Path_202" class="st3" d="M116.1-181c-12.5,0-20-6.1-20.3-6.4l-0.7-0.6l3.5-34c0.1-0.9,0.9-1.6,1.8-1.5s1.6,0.9,1.5,1.8
				l0,0l-3.3,32.1c5.7,3.7,12.4,5.5,19.2,5.1c13.4-0.6,19.3-5,20.9-6.4l-5.4-37.9c-0.1-0.9,0.5-1.7,1.4-1.9c0.9-0.1,1.7,0.5,1.9,1.4
				l5.6,39.5l-0.5,0.6c-0.2,0.3-6.2,7.3-23.8,8.1C117.3-181,116.7-181,116.1-181"/>
			<path id="Path_203" class="st3" d="M119.1-169c-10.9,0-21.8-5.9-22.3-6.2l-0.8-0.4L95.1-188l3.3-0.2l0.8,10.6
				c2.8,1.4,12.3,5.7,21.2,5.3c6.5-0.4,12.9-2,18.9-4.7l-0.4-12.6l3.3-0.1l0.4,14.7l-0.9,0.5c-6.6,3.2-13.9,5-21.2,5.5
				C120-169,119.6-169,119.1-169"/>
			<path id="Path_204" class="st3" d="M174.6-169.7c-7.5-0.1-15-1.8-21.8-5l-0.9-0.4l-0.6-13.5l3.3-0.1l0.5,11.6
				c2.8,1.2,12,4.8,22,4.2c7.8-0.6,15.3-2.7,22.2-6.4l-2-8.8l3.2-0.7l2.5,11.2l-1,0.6c-7.6,4.3-16.1,6.8-24.8,7.4
				C176.5-169.7,175.5-169.7,174.6-169.7"/>
			<path id="Path_205" class="st3" d="M158.8-201c-0.9,0-1.7-0.7-1.7-1.7c0-0.7,0.5-1.4,1.2-1.6c0,0,2.3-0.8,6.9-4.2
				c2-1.6,3.9-3.5,5.5-5.5c-4.8-0.1-17.3-0.7-21.8-5.7c-1.3-1.4-2-3.3-1.7-5.2c0.4-3.8,2.4-5.4,4-6.1c6.9-2.9,20.2,6.5,23.6,9.1
				c4.1-5.6,11-13.2,17.1-12.8c3,0.2,5.4,2.2,7.1,5.9c1.1,2.1,1,4.6-0.2,6.5c-3.9,6-18.5,6.7-22.4,6.8c-1.4,1.8-5.5,7-9,9.7
				c-5.1,3.8-7.6,4.7-7.9,4.7C159.1-201,159-201,158.8-201 M154.2-228.2c-0.6,0-1.2,0.1-1.8,0.3c-0.4,0.2-1.6,0.7-2,3.4
				c-0.1,1,0.2,1.9,0.9,2.6c3.5,3.8,15,4.6,20.2,4.7c0.3-0.5,0.8-1.2,1.3-2C167.6-223.1,159-228.2,154.2-228.2 M191.4-231.4
				c-4.3,0-10.5,6.7-14.8,12.7c6.7-0.2,17-1.7,19.3-5.3c0.6-1,0.6-2.3,0-3.4c-1.7-3.8-3.6-3.9-4.3-4
				C191.5-231.4,191.4-231.4,191.4-231.4"/>
			<path id="Path_206" class="st3" d="M190.8-205.6c-0.1,0-0.3,0-0.4-0.1c-3-1-6-2.3-8.7-3.9c-2-1.1-7.3-4.7-7.6-4.9
				c-0.8-0.5-1-1.5-0.4-2.3c0.5-0.8,1.5-1,2.3-0.4c0.1,0,5.4,3.7,7.3,4.7c2.5,1.5,5.2,2.7,8,3.6c0.9,0.2,1.4,1.2,1.1,2
				C192.2-206.1,191.5-205.6,190.8-205.6"/>
			<path id="Path_207" class="st3" d="M163.3-193.2c-0.9,0-1.7-0.7-1.7-1.7c0-0.6,0.3-1.2,0.9-1.5c4.4-2.2,9.2-3.5,14.1-4
				c9.8-0.8,14.9,1.1,15.1,1.2c0.8,0.3,1.3,1.3,0.9,2.2c-0.3,0.8-1.3,1.2-2.1,0.9c0,0-4.7-1.7-13.7-1c-4.5,0.4-8.8,1.7-12.8,3.6
				C163.9-193.3,163.6-193.2,163.3-193.2"/>
			<path id="Path_208" class="st3" d="M159.1-227.3c-0.8,0-1.5-0.6-1.6-1.3c-0.8-3.8-2.3-12.9,0.1-15.5c4.6-5.2,23.5-5.3,28.4-1.3
				c2.9,2.4,1.2,11.3,0.4,15c-0.2,0.9-1.1,1.4-2,1.2s-1.4-1.1-1.2-2c1.2-5.2,1.6-10.8,0.7-11.7c-3.9-3.2-20.8-2.5-23.8,0.9
				c-0.8,1-0.4,6.9,0.7,12.7c0.2,0.9-0.4,1.8-1.3,1.9c0,0,0,0,0,0C159.3-227.3,159.2-227.3,159.1-227.3"/>
			<path id="Path_209" class="st3" d="M105.4-200.4c-0.9,0-1.7-0.7-1.7-1.6c0-0.9,0.6-1.6,1.5-1.7c0,0,2.3-0.4,6.2-3
				c1.8-1.4,3.4-3.1,4.7-5c-6.9,1-20.4,2-25-3.4c-1.8-2.2-2.1-5-0.8-8.4c0.6-1.7,2-3,3.7-3.5c7-2,21,7.5,25.4,10.7
				c2.9-3.9,10.8-13.9,17.5-14.5c1.9-0.2,3.8,0.5,5.2,1.9c3.2,3.2,4.3,6.2,3.2,8.8c-2.8,6.9-19.7,7.9-25,8.1c-1.1,1.8-3.9,6-7,8.1
				c-4.6,3.1-7.4,3.5-7.7,3.6C105.5-200.4,105.4-200.4,105.4-200.4 M96.2-224c-0.4,0-0.9,0-1.3,0.2c-0.7,0.2-1.3,0.7-1.5,1.4
				c-1.3,3.3-0.1,4.7,0.2,5.1c3,3.6,13.8,3.4,22,2.3C109.4-219.3,100.8-224,96.2-224 M137.6-227.5c-0.1,0-0.2,0-0.4,0
				c-4.4,0.4-10.7,7.4-14.3,12c8.2-0.5,17.9-2.5,19.3-5.9c0.7-1.6-1-3.8-2.5-5.2C139.2-227.2,138.4-227.5,137.6-227.5"/>
			<path id="Path_210" class="st3" d="M134-203.1c-0.1,0-0.1,0-0.2,0c-0.3,0-6.9-0.8-11.2-3.8c-1.8-1.3-3.4-2.9-4.8-4.6
				c-0.6-0.7-0.5-1.8,0.3-2.3c0.7-0.6,1.8-0.5,2.3,0.3l0,0c1.2,1.5,2.6,2.8,4.1,3.9c3.6,2.5,9.6,3.3,9.7,3.3
				c0.9,0.1,1.6,0.9,1.5,1.8C135.6-203.7,134.9-203,134-203.1"/>
			<path id="Path_211" class="st3" d="M107.4-195.2c-0.9,0-1.7-0.7-1.7-1.7c0-0.4,0.1-0.8,0.4-1c0.2-0.3,5.2-6.3,13.3-6.6
				c4.5,0,8.9,1.1,12.8,3.3c0.8,0.5,1,1.5,0.6,2.3s-1.5,1-2.3,0.6c-3.4-1.9-7.1-2.8-11-2.9c-6.5,0.3-10.8,5.4-10.8,5.4
				C108.4-195.4,107.9-195.2,107.4-195.2"/>
			<path id="Path_212" class="st3" d="M105.1-222.3c-0.8,0-1.5-0.6-1.6-1.4c-0.5-3-2-13,0.2-16c2.8-3.7,9.5-4.5,12.2-4.6
				c5-0.3,12,0.6,15.2,3.9c2.9,3,1.3,11.9,0.8,14.6c-0.2,0.9-1.1,1.5-2,1.3s-1.5-1.1-1.3-2c0.9-4.7,1.2-10.5,0.1-11.6
				c-1.9-2-7.1-3.2-12.6-2.9c-4.7,0.3-8.4,1.5-9.8,3.3c-0.9,1.2-0.6,7.9,0.4,13.4c0.2,0.9-0.5,1.8-1.4,1.9
				C105.3-222.3,105.2-222.3,105.1-222.3"/>
			<path id="Path_213" class="st3" d="M81.7-469.3c0,0-6.5,28.6-9,44.7c-2.8,18.4-4.3,52.3-4.3,52.3c-0.4,6.4,4.5,11.9,10.8,12.2
				c0,0,0,0,0,0c0,0,37.5,6.5,61.7,0.9c6-1.4,0.2-26.6,3.1-26.8c3.5-0.2-0.2,24.6,6.1,27.3c14.8,6.4,56.6-8.3,56.6-8.3
				c5.2-0.9,8.7-5.9,7.8-11.1c0-0.1-0.1-0.3-0.1-0.4c0,0-6.5-36.9-9.8-49.3c-3-11.4-15.2-46-15.2-46s-34.3,5.3-55.8,6.3
				C116.4-466.9,99-467.5,81.7-469.3"/>
			<path id="Path_214" class="st3" d="M83.3-467.5L83.3-467.5c-0.9,0-1.7-0.8-1.7-1.7c0,0,0,0,0,0c0-0.4,0.5-28,0.5-53.1l-44.6-6.5
				c-0.9-0.1-1.5-1-1.4-1.9c0-0.1,0.1-0.3,0.1-0.4c0.2-0.4,19.1-44.7,30.7-65.4c9-16.1,17.1-25.8,32-27.8c4.4-0.6,22.6-0.2,23.3-0.2
				c0.5,0,1,0.3,1.3,0.7c3.5,4.6,8.9,7.3,14.7,7.3c12.6,0,17.9-8,18.1-8.3c0.3-0.5,0.9-0.8,1.5-0.8c3.3,0.1,32.6,1.6,39.2,9.8
				c10.3,13,12.9,68.4,13,70.7c0,0.6-0.3,1.2-0.8,1.5c-3,1.8-6.4,2.9-9.9,3.3c-4.7,0.5-9.5,0.2-14.1-0.9c0.3,8.7,0.6,17.5,0.9,22.2
				c0.8,10.9,3.6,47,3.6,47.4c0.1,0.9-0.6,1.7-1.5,1.8c-0.9,0.1-1.7-0.6-1.8-1.5l0,0c0-0.4-2.9-36.5-3.6-47.4
				c-0.8-11.8-1.6-47.2-1.6-47.6c0-0.9,0.7-1.7,1.6-1.7c0.9,0,1.7,0.7,1.7,1.6l0.6,21.8c4.5,1.1,9.2,1.4,13.8,1
				c2.7-0.3,5.3-1.1,7.7-2.3c-0.4-7.7-3.4-56.6-12.3-67.8c-4.6-5.8-26.6-8.1-35.8-8.5c-1.8,2.4-8.1,9-20.3,9c-6.6,0-12.7-3-16.9-8
				c-3.6-0.1-18.4-0.3-22,0.2c-13.6,1.8-21.1,11-29.5,26.2c-10,18.1-25.8,54.3-29.7,63.1l41.7,6.1c-0.1-3-0.3-9.2-0.5-15.3
				c-0.1-4.3-0.2-8.7-0.3-11.9c0-1.6,0-3,0-4c0-1.6,0-3,1.6-3.1c1.7-0.1,1.8,1.2,2,3.8c1.7,21.3,0.4,86.4,0.4,87
				C84.9-468.2,84.2-467.5,83.3-467.5"/>
			<path id="Path_215" class="st3" d="M211.8-384.4c-0.2,0-0.4,0-0.6-0.1c-0.9-0.3-1.3-1.3-1-2.1c0,0,0,0,0,0
				c1.5-4.2,5.4-16.1,5.5-20.3c-0.2-2.7-0.7-5.3-1.4-7.8c-0.6-2.3-1.1-4.6-1.4-6.9c-0.1-2.3-0.3-5.1-0.4-7.9
				c-0.3-5.6-0.6-12-1.1-16.6c-0.8-7.1-4.7-51.5-4.7-54.3c0-18.5-0.8-43.7-0.8-43.9c0-0.9,0.7-1.7,1.6-1.7c0.9,0,1.7,0.7,1.7,1.6
				c0,0.3,0.8,25.5,0.8,44c0,2.2,3.8,46.1,4.7,53.9c0.5,4.7,0.8,11.1,1.1,16.8c0.1,2.9,0.3,5.6,0.4,7.9c0.3,2.2,0.7,4.3,1.3,6.4
				c0.8,3.1,1.6,6.4,1.5,8.7c-0.1,5.6-5.4,20.7-5.7,21.3C213.1-384.8,212.5-384.4,211.8-384.4"/>
			<path id="Path_216" class="st3" d="M121.9-622.1c-0.2,0-0.4,0-0.6-0.1c-0.9-0.3-1.3-1.3-1-2.1c1.1-2.8,2-5.7,2.7-8.6
				c0.2-2.6,0.1-5.2-0.5-7.8L122-643l2.3,0.3c4.2,0.5,8.3,0.6,12.5,0.5c4.5-0.5,8.9-1.2,13.3-2.1l1.8-0.4l0.2,1.9
				c0.2,2.7,0.6,5.5,1.2,8.1c1.4,3.4,3.3,6.5,5.6,9.3c0.6,0.7,0.6,1.7-0.1,2.3c-0.7,0.6-1.7,0.6-2.3-0.1c0,0,0,0,0,0
				c-2.7-3.1-4.8-6.6-6.3-10.4c-0.6-2.3-1-4.7-1.2-7.1c-3.9,0.8-7.9,1.4-11.9,1.8c-3.6,0.1-7.3,0-10.9-0.3c0.3,2.2,0.4,4.5,0.1,6.7
				c-0.3,2.4-2.6,8.6-2.9,9.3C123.2-622.5,122.6-622.1,121.9-622.1"/>
			<path id="Path_217" class="st3" d="M125.8-639.3c-0.1,0-0.3,0-0.4-0.1c-1-0.3-24.1-6.5-33.8-20.9c-9.1-13.6-14-32.2-14.2-33
				l-0.3-1.1l0.9-0.7c0.1-0.1,13.6-10.1,21.7-18.2c5.9-5.9,24.7-26.2,24.9-26.4l0.9-1l1.1,0.6c0.2,0.1,18.4,10.4,25.9,13.1
				c10.8,3.8,22,6.2,33.4,7.3l1.5,0.1l0.1,1.5c0.1,1.4,1.5,34.5-5.5,49.4c-9.9,21.2-30.8,27.3-31.6,27.6c-0.9,0.2-1.8-0.3-2-1.1
				c-0.2-0.9,0.3-1.8,1.1-2c0.2-0.1,20.3-6,29.5-25.8c5.8-12.5,5.4-39.8,5.2-46.4c-11.2-1.1-22.2-3.6-32.8-7.3
				c-6.8-2.4-21.1-10.3-25.3-12.7c-3.8,4.1-18.9,20.4-24.1,25.6c-7.1,7.1-17.9,15.4-21.1,17.8c1.2,4.2,5.8,19.6,13.4,30.9
				c9,13.4,31.6,19.4,31.9,19.5c0.9,0.2,1.4,1.1,1.2,2C127.2-639.8,126.5-639.3,125.8-639.3"/>
			<path id="Path_218" class="st3" d="M139.8-664.3c-1.3,0-2.5-0.3-3.7-1c-0.8-0.5-1-1.5-0.5-2.3c0.5-0.7,1.5-1,2.3-0.5
				c0.3,0.2,2.7,1.5,6-1.5c1.3-1.3,2.2-3,2.5-4.8c0.2-0.9,1-1.5,1.9-1.3c0.9,0.2,1.5,1,1.3,1.9c-0.5,2.5-1.7,4.9-3.6,6.7
				C144.4-665.3,142.2-664.3,139.8-664.3"/>
			<path id="Path_219" class="st3" d="M126.8-681.6c-0.9,0-1.7-0.7-1.7-1.7c0-0.1,0-0.2,0-0.3c0-0.3,0.6-3.1,4.9-5.8
				c2.1-1.2,4.6-1.5,6.9-0.7c0.9,0.3,1.3,1.2,1,2.1c-0.3,0.9-1.2,1.3-2.1,1c0,0-0.1,0-0.1,0c-1.3-0.4-2.8-0.3-4,0.4
				c-2.9,1.8-3.4,3.5-3.4,3.5C128.3-682.2,127.6-681.6,126.8-681.6"/>
			<path id="Path_220" class="st3" d="M153.2-697.5c0-2.4,1.4-4.3,3.2-4.3s3.2,1.9,3.2,4.3c0,2.4-1.4,4.3-3.2,4.3
				S153.2-695.2,153.2-697.5"/>
			<path id="Path_221" class="st3" d="M103.9-695.7c0-2.4,1.4-4.3,3.2-4.3s3.2,1.9,3.2,4.3s-1.4,4.3-3.2,4.3
				S103.9-693.4,103.9-695.7"/>
			<path id="Path_222" class="st3" d="M125-640.9c0,0-26.7-10.5-31.1-18.9c-4.4-8.5-16.3-34.5-16.3-34.5L102-713l22.7-24.8
				c0,0,18.6,8.4,25.4,11.6c9.1,4.3,35.7,8.3,35.7,8.3s1.7,49.5-13.1,60.3c-6.7,4.9-22.3,14.9-22.3,14.9c0.9,3.6,1.7,7.2,2.2,10.8
				c0.2,1.5,5,8,5,8s33.2,2.3,37,8.2c16.8,26.1,13.1,81.4,13.1,81.4l20-0.6c4.9-0.2,8.8-4.3,8.6-9.2c0-0.4-0.1-0.9-0.1-1.3
				c-1.1-6-9.2-14.2-11.1-24c-2.2-11.4,7.9-28.9,4.9-43.3c-2.6-12.4-19.7-28.3-22.6-41.2c-4.1-18,9.5-31.1,4.9-51.4
				c-5.4-24-9.5-30.6-17-39.6c-16.3-19.5-55.2-23.4-72.6-22.3c-19.2,1.3-44.2,15.5-51.8,33.7c-3,7.3-6.3,22.9-11.4,37.7
				c-5.8,16.9,5.1,25.5,6.6,34.1c0.9,5.2-4.5,12.9-4.5,24c0,16.6,6.6,39.1,6.6,39.1s11.5-23.4,30.8-24.1c5.2-0.2,22.6-0.6,22.6-0.6
				l2.6-8.7L125-640.9z"/>
			<path id="Path_223" class="st3" d="M165.5-703c-0.3,0-0.6-0.1-0.9-0.2l-1.3-0.8c-3.9-2.4-8.6-3-13-1.8c-0.9,0.3-1.8-0.3-2-1.1
				c-0.3-0.9,0.3-1.8,1.1-2l0,0c5.3-1.5,11-0.7,15.6,2.1l1.3,0.8c0.8,0.5,1,1.5,0.5,2.3C166.6-703.3,166.1-703,165.5-703"/>
			<path id="Path_224" class="st3" d="M100.2-702.3c-0.9,0-1.7-0.7-1.7-1.7c0-0.6,0.3-1.1,0.8-1.4c4.7-2.9,10.4-3.6,15.6-2l1.5,0.4
				c0.9,0.3,1.4,1.2,1.1,2.1c-0.3,0.9-1.2,1.4-2.1,1.1l-1.5-0.4c-4.4-1.3-9.1-0.7-13,1.7C100.8-702.4,100.5-702.3,100.2-702.3"/>
			<path id="Path_225" class="st0" d="M0.4-918.1v87.4c0,13.6,11,24.7,24.7,24.7c0,0,0,0,0,0h8.6v-47c0-5,4-9,9-9h1.8c5,0,9,4,9,9
				v47h8.6c13.6,0,24.7-11,24.7-24.7c0,0,0,0,0,0v-87.4H0.4z"/>
			<path id="Path_226" class="st3" d="M33.7-350.6c0,5,4,9,9,9h1.8c5,0,9-4,9-9V-806H33.7V-350.6z"/>
			<path id="Path_227" class="st0" d="M79.8-522.5c0,0-22.7,53.9-36.2,53.3c-14.6-0.6-21.7-24.5-23-58.8
				c-1.6-40.6-0.4-39.6,5.6-50.9c2.1-3.8,8-10.1,12.2-14.3c2.5-2.5,4.4-4.3,4.4-4.3s5.4,19,3.6,26.3c-0.9,3.4-6.4,12.4-6.4,12.4
				l-0.6,30.5"/>
			<path id="Path_228" class="st3" d="M43.8-467.5c-0.1,0-0.2,0-0.3,0C29-468.1,20.5-489,18.9-527.9c-1.6-39.2,5.1-50.6,5.9-51.8
				c0.7-1.2,8.4-14.7,16.1-17.7c1.3-0.6,2.9-0.4,4,0.5c4,3.2,3.1,16.2,1.6,26.5c-0.5,3.3-4.2,7.7-5.6,9.2l-0.1,32.8
				c0,0.9-0.7,1.7-1.7,1.7h0c-0.9,0-1.7-0.7-1.6-1.7c0,0,0,0,0,0l0.1-33.5c0-0.4,0.2-0.8,0.5-1.1c1.8-1.9,4.8-5.8,5.1-7.9
				c2-14.3,1.2-22.2-0.4-23.4c-0.1-0.1-0.3-0.2-0.8,0c-5.6,2.1-12.3,12.4-14.4,16.2c0,0.1-0.1,0.1-0.1,0.1
				c-0.1,0.1-6.9,10.7-5.3,49.9c1.4,36.4,9,56.7,21.4,57.2c0.1,0,0.1,0,0.2,0c9,0,26.4-33,35.2-54c0.4-0.8,1.3-1.2,2.2-0.9
				c0.8,0.4,1.2,1.3,0.9,2.2C79.7-517.8,58-467.5,43.8-467.5"/>
			<path id="Path_229" class="st3" d="M53.6-528l0.4,56.3l-19,1.7c0,0,4.3-32.6,2.8-50.6c-0.9-10.6,0-40,0-40s8.6-6.9,8.6-10.5"/>
			<path id="Path_230" class="st0" d="M38.7-592.2c0,0,8.2-6.6,9.6-4.4c4,6.6,2.2,12.7,1.6,16.4c-0.8,4.5-4.5,9.4-7.4,12.8
				c-1.2,1.5-5.3,5.1-5.3,5.1L38.7-592.2z"/>
			<g id="Group_145" transform="translate(109.452 346.9) rotate(8)">
				<g>
					<defs>
						
							<rect id="SVGID_00000097458211699575784350000011851335642595875719_" x="-127.1" y="-909.5" transform="matrix(0.1392 -0.9903 0.9903 0.1392 787.1387 -853.6888)" width="59.2" height="59.9"/>
					</defs>
					<clipPath id="SVGID_00000175311251587449329840000017216310162795300257_">
						<use xlink:href="#SVGID_00000097458211699575784350000011851335642595875719_"  style="overflow:visible;"/>
					</clipPath>
					
						<g id="Group_20" transform="translate(0 0)" style="clip-path:url(#SVGID_00000175311251587449329840000017216310162795300257_);">
						<path id="Path_61" class="st3" d="M-110-869.2c-0.4-5.4,0.6-10.7,2.9-15.6c0.4-0.9,1.5-1.4,2.4-0.9c0.9,0.4,1.4,1.5,0.9,2.4
							c-2,4.3-2.9,9.1-2.6,13.8"/>
						<path id="Path_62" class="st3" d="M-111.8-872.4c0.8-5.6-0.3-11.4-3.1-16.3c-3.6-6.7-11.5-13.9-11.9-11.3
							c-0.9,5.9-0.8,11.7,1.3,17.3C-122.8-875.7-112-871-111.8-872.4"/>
						<path id="Path_63" class="st3" d="M-93.8-902c-8.3,5.7-13.7,15.2-15.6,24.7c1.2,0.2,2.4,0.4,3.6,0.5c1-4.8,4-9.9,8.4-14.4
							c4.5-4.7,10.1-8.4,16.3-10.6c0.6-0.2,1.2,0.1,1.4,0.7c0.2,0.6-0.1,1.2-0.7,1.4l0,0c-11,3.8-21,13.9-23.2,23.1
							c8.5,0,16.5-3.9,22.8-9.4c9.4-8.2,10.7-13.3,13.2-21C-66.4-911-83.1-909.4-93.8-902"/>
						<path id="Path_64" class="st3" d="M-109.8-859.1c-1.2-4.7-0.4-20.2,2.8-25.4c0,0.1,0-0.1,0.1-0.3c0.4-0.9,1.5-1.4,2.4-0.9
							c0.9,0.4,1.4,1.5,0.9,2.4c-2.8,4.5-3,19.4-2.6,23.7"/>
					</g>
				</g>
			</g>
		</g>
	</g>
	<rect id="Rectangle_84" x="33.4" y="-807.1" class="st0" width="21" height="24"/>
</g>
<g id="Group_142" transform="translate(578.28 966)">
	<g>
		<defs>
			<rect id="SVGID_00000122704553064092866570000011414204962290285244_" x="-29.6" y="-918.1" width="235.2" height="751.5"/>
		</defs>
		<clipPath id="SVGID_00000134248413588118102850000008966914723679019663_">
			<use xlink:href="#SVGID_00000122704553064092866570000011414204962290285244_"  style="overflow:visible;"/>
		</clipPath>
		<g id="Group_141" style="clip-path:url(#SVGID_00000134248413588118102850000008966914723679019663_);">
			<path id="Path_231" class="st3" d="M0.1-651.7c-0.7,0-1.4-0.5-1.6-1.2c-0.1-0.3-8.2-29.5-14.5-67.1c-3.2-19.3-4.1-60.1-4.1-60.1
				h3.5c0,0,0.7,40.5,3.9,59.6c6.3,37.4,14.3,66.4,14.4,66.7c0.2,0.9-0.3,1.8-1.2,2C0.4-651.7,0.3-651.7,0.1-651.7"/>
			<path id="Path_232" class="st3" d="M51.3-217.7c-0.9,0-1.7-0.7-1.7-1.7c0-34-9.2-136.3-9.3-137.3c-0.1-0.9,0.6-1.7,1.5-1.8
				s1.7,0.6,1.8,1.5c0.1,1,9.3,103.5,9.3,137.6C52.9-218.4,52.2-217.7,51.3-217.7"/>
			<path id="Path_233" class="st3" d="M86-224.9c-0.9,0-1.7-0.7-1.7-1.7v-129.8c0-0.9,0.7-1.7,1.7-1.7c0.9,0,1.7,0.7,1.7,1.7v129.8
				C87.6-225.6,86.9-224.9,86-224.9"/>
			<path id="Path_234" class="st3" d="M104.9-220.7L104.9-220.7c-0.9,0-1.7-0.7-1.7-1.7l0,0l0.6-135.4c0-0.9,0.7-1.6,1.7-1.6h0
				c0.9,0,1.6,0.7,1.6,1.7l-0.6,135.4C106.6-221.4,105.8-220.7,104.9-220.7"/>
			<path id="Path_235" class="st3" d="M140.5-222.7L140.5-222.7c-1,0-1.7-0.8-1.7-1.7c0,0,0,0,0,0l4.7-138.4c0-0.9,0.8-1.6,1.7-1.6
				c0,0,0,0,0,0c0.9,0,1.6,0.8,1.6,1.7c0,0,0,0,0,0l-4.7,138.4C142.2-223.4,141.4-222.7,140.5-222.7"/>
			<path id="Path_236" class="st3" d="M123.8-178.2c-16.4,0-21-7.4-21.2-7.7l-0.2-0.4l0.9-35.7c0-0.9,0.7-1.6,1.6-1.6c0,0,0,0,0.1,0
				c0.9,0,1.6,0.8,1.6,1.7c0,0,0,0,0,0l-0.9,34.7c1.1,1.4,6.5,6.5,21.2,5.7c15.3-0.9,20-4.3,21.2-5.4l-9.2-36.9
				c-0.2-0.9,0.3-1.8,1.2-2s1.8,0.3,2,1.2l0,0l9.5,38.3l-0.2,0.5c-0.3,0.7-3.6,6.5-24.3,7.7C125.9-178.2,124.8-178.2,123.8-178.2"/>
			<path id="Path_237" class="st3" d="M67.2-178.6c-12.5,0-20-6.1-20.3-6.4l-0.7-0.6l3.5-34c0.1-0.9,0.9-1.6,1.8-1.5
				s1.6,0.9,1.5,1.8L49.6-187c5.7,3.7,12.4,5.5,19.1,5.1c13.5-0.6,19.3-5,20.9-6.4l-5.4-37.9c-0.1-0.9,0.5-1.7,1.4-1.9
				c0.9-0.1,1.7,0.5,1.9,1.4l5.6,39.5l-0.5,0.6c-0.2,0.3-6.2,7.3-23.8,8.1C68.3-178.6,67.7-178.6,67.2-178.6"/>
			<path id="Path_238" class="st3" d="M70.1-166.6c-10.9,0-21.8-5.9-22.3-6.2l-0.8-0.4l-0.9-12.4l3.3-0.2l0.8,10.6
				c2.8,1.4,12.3,5.7,21.2,5.3c6.5-0.4,12.9-2,18.9-4.7l-0.4-12.6l3.3-0.1l0.4,14.7l-0.9,0.5c-6.6,3.2-13.9,5-21.2,5.5
				C71.1-166.6,70.6-166.6,70.1-166.6"/>
			<path id="Path_239" class="st3" d="M125.7-167.3c-7.5-0.1-15-1.8-21.8-5l-0.9-0.4l-0.6-13.5l3.3-0.1l0.5,11.6
				c2.8,1.2,12,4.8,22,4.2c7.8-0.6,15.3-2.7,22.2-6.4l-2-8.8l3.2-0.7l2.5,11.2l-1,0.6c-7.6,4.3-16.1,6.8-24.8,7.4
				C127.5-167.3,126.6-167.3,125.7-167.3"/>
			<path id="Path_240" class="st3" d="M109.8-198.6c-0.9,0-1.7-0.7-1.7-1.7c0-0.7,0.5-1.4,1.2-1.6c0,0,2.3-0.8,6.9-4.2
				c2-1.6,3.9-3.5,5.5-5.5c-4.8-0.1-17.3-0.7-21.8-5.7c-1.3-1.4-2-3.3-1.7-5.2c0.4-3.8,2.4-5.4,4-6.1c6.9-2.9,20.2,6.5,23.6,9.1
				c4.1-5.6,11-13.2,17.1-12.8c3,0.2,5.4,2.2,7.1,5.9c1.1,2.1,1,4.6-0.2,6.5c-3.9,6-18.5,6.7-22.4,6.8c-1.4,1.8-5.5,7-9,9.7
				c-5.1,3.8-7.6,4.7-7.9,4.7C110.2-198.6,110-198.6,109.8-198.6 M105.2-225.9c-0.6,0-1.2,0.1-1.8,0.3c-0.4,0.2-1.6,0.7-2,3.4
				c-0.1,1,0.2,1.9,0.9,2.6c3.5,3.8,15,4.6,20.2,4.7c0.3-0.5,0.8-1.2,1.3-2C118.7-220.7,110.1-225.8,105.2-225.9 M142.4-229
				c-4.3,0-10.5,6.7-14.8,12.7c6.7-0.2,17-1.7,19.3-5.3c0.6-1,0.6-2.3,0-3.4c-1.7-3.8-3.6-3.9-4.3-4C142.5-229,142.5-229,142.4-229"
				/>
			<path id="Path_241" class="st3" d="M141.8-203.2c-0.1,0-0.3,0-0.4-0.1c-3-1-6-2.3-8.7-3.9c-2-1.1-7.3-4.7-7.6-4.9
				c-0.8-0.5-1-1.5-0.4-2.3c0.5-0.8,1.5-1,2.3-0.4c0.1,0,5.4,3.7,7.3,4.7c2.5,1.5,5.2,2.7,8,3.6c0.9,0.2,1.4,1.2,1.1,2
				C143.2-203.7,142.5-203.3,141.8-203.2"/>
			<path id="Path_242" class="st3" d="M114.4-190.8c-0.9,0-1.7-0.7-1.7-1.7c0-0.6,0.3-1.2,0.9-1.5c4.4-2.2,9.2-3.5,14.1-4
				c9.8-0.8,14.9,1.1,15.1,1.2c0.9,0.3,1.3,1.3,1,2.1s-1.3,1.3-2.1,1l0,0c0,0-4.7-1.7-13.7-1c-4.5,0.4-8.8,1.7-12.8,3.6
				C114.9-190.9,114.6-190.8,114.4-190.8"/>
			<path id="Path_243" class="st3" d="M110.1-224.9c-0.8,0-1.5-0.6-1.6-1.3c-0.8-3.8-2.3-12.9,0.1-15.5c4.6-5.2,23.5-5.3,28.4-1.3
				c2.9,2.4,1.2,11.3,0.4,15c-0.2,0.9-1.1,1.4-2,1.2c-0.9-0.2-1.4-1.1-1.2-2c1.2-5.2,1.6-10.8,0.7-11.7c-3.9-3.2-20.8-2.5-23.8,0.9
				c-0.8,1-0.4,6.9,0.7,12.7c0.2,0.9-0.4,1.8-1.3,1.9c0,0,0,0,0,0C110.3-224.9,110.2-224.9,110.1-224.9"/>
			<path id="Path_244" class="st3" d="M56.4-198c-0.9,0-1.7-0.7-1.7-1.6c0-0.9,0.6-1.6,1.5-1.7c0,0,2.3-0.4,6.2-3
				c1.8-1.4,3.4-3.1,4.7-5c-6.9,1-20.4,2-25-3.4c-1.8-2.2-2.1-5-0.8-8.4c0.6-1.7,2-3,3.7-3.5c7-2,21,7.5,25.4,10.7
				c2.9-3.9,10.8-13.9,17.5-14.5c1.9-0.2,3.8,0.5,5.2,1.9c3.2,3.2,4.3,6.2,3.2,8.8c-2.8,6.9-19.7,7.9-25,8.1c-1.1,1.8-3.9,6-7,8.1
				c-4.6,3.1-7.4,3.5-7.7,3.6C56.5-198,56.5-198,56.4-198 M47.2-221.6c-0.4,0-0.9,0-1.3,0.2c-0.7,0.2-1.3,0.7-1.5,1.5
				c-1.3,3.3-0.1,4.7,0.2,5.1c3.3,3.9,14.8,3.3,22,2.3C60.4-216.9,51.9-221.6,47.2-221.6 M88.6-225.1c-0.1,0-0.2,0-0.4,0
				c-4.4,0.4-10.7,7.4-14.3,12c8.2-0.5,17.9-2.5,19.3-5.9c0.7-1.6-1-3.8-2.5-5.2C90.3-224.8,89.5-225.2,88.6-225.1"/>
			<path id="Path_245" class="st3" d="M85-200.7c-0.1,0-0.1,0-0.2,0c-0.3,0-6.9-0.8-11.2-3.8c-1.8-1.3-3.4-2.9-4.8-4.6
				c-0.6-0.7-0.4-1.8,0.3-2.3c0.7-0.5,1.7-0.4,2.3,0.3c1.2,1.5,2.6,2.8,4.1,3.9c3.6,2.5,9.6,3.3,9.7,3.3c0.9,0.1,1.6,0.9,1.5,1.8
				C86.6-201.3,85.9-200.6,85-200.7"/>
			<path id="Path_246" class="st3" d="M58.4-192.8c-0.9,0-1.7-0.7-1.7-1.7c0-0.4,0.1-0.8,0.4-1c0.2-0.3,5.2-6.3,13.3-6.6
				c4.5,0,8.9,1.1,12.8,3.3c0.8,0.5,1,1.5,0.6,2.3c-0.5,0.8-1.5,1-2.3,0.6c-0.1,0-5.3-3.1-11-2.9c-6.5,0.3-10.8,5.4-10.8,5.4
				C59.4-193,58.9-192.8,58.4-192.8"/>
			<path id="Path_247" class="st3" d="M56.1-219.9c-0.8,0-1.5-0.6-1.6-1.4c-0.5-3-2-13,0.2-16c2.8-3.7,9.5-4.5,12.2-4.6
				c5-0.3,12,0.6,15.2,3.9c2.9,3,1.3,11.9,0.8,14.6c-0.2,0.9-1.1,1.5-2,1.3c-0.9-0.2-1.5-1.1-1.3-2c0.9-4.7,1.2-10.5,0.1-11.6
				c-1.9-2-7.1-3.2-12.6-2.9c-4.7,0.3-8.4,1.5-9.8,3.3c-0.9,1.2-0.6,7.9,0.4,13.4c0.2,0.9-0.5,1.8-1.4,1.9
				C56.3-219.9,56.2-219.9,56.1-219.9"/>
			<path id="Path_248" class="st3" d="M32.7-467c0,0-6.5,28.6-9,44.7c-2.8,18.4-4.3,52.3-4.3,52.3c-0.4,6.4,4.5,11.9,10.8,12.2
				c0,0,0,0,0,0c0,0,46.9,4.5,60.6,1.4c3.8-0.9,5-24.1,5-24.1s1.6,22.5,5.8,23.6c14.9,4,56.2-7.8,56.2-7.8c5.2-0.9,8.7-5.9,7.8-11.1
				c0-0.1-0.1-0.3-0.1-0.4c0,0-6.5-36.9-9.8-49.3c-3-11.4-15.2-46-15.2-46s-34.3,5.3-55.8,6.3C67.4-464.5,50-465.1,32.7-467"/>
			<path id="Path_249" class="st3" d="M34.3-465.1L34.3-465.1c-1,0-1.7-0.8-1.7-1.7c0,0,0,0,0,0c0-0.7,2.3-65.6-0.4-86.6
				c-1.5-11.5-11.3-44.7-12-47.2l-26.4-49.8c-0.4-0.8-0.1-1.8,0.7-2.2c0,0,0.1,0,0.1-0.1l36.8-15.9c0.8-0.4,1.8,0,2.2,0.9
				c0,0.1,0.1,0.1,0.1,0.2c0.1,0.4,10.9,37.4,20.3,44.3c2.1,1.5,12.4,1.6,19,1.1c0.6,0,1.1,0.2,1.5,0.7c3.5,4.6,8.9,7.3,14.7,7.3
				c12.7,0,18-8.2,18.1-8.3c0.3-0.5,0.9-0.8,1.5-0.8c3.3,0.1,32.6,1.6,39.2,9.8c10,12.7,31.7,50.6,32.7,52.2
				c0.4,0.6,0.3,1.4-0.2,1.9c-0.4,0.4-9.4,10.2-16.1,14.1c-4,2.4-8.3,4.4-12.7,5.8c-0.7,0.2-1.4,0-1.8-0.6l-14.1-18.9
				c0.2,10.3,0.8,33.3,1.5,42.2c0.8,10.9,3.6,47,3.6,47.4c0.1,0.9-0.6,1.7-1.5,1.8c-0.9,0.1-1.7-0.6-1.8-1.5l0,0
				c0-0.4-2.9-36.5-3.6-47.4c-0.8-11.8-1.6-47.2-1.6-47.6c0-0.9,0.7-1.7,1.6-1.7c0.5,0,1,0.2,1.4,0.7l16.5,22.1
				c3.8-1.4,7.4-3.1,10.9-5.1c5.1-3,12.1-10.1,14.5-12.6c-3.7-6.4-22.8-39.5-31.8-50.8c-4.6-5.8-26.6-8.1-35.8-8.5
				c-1.8,2.4-8.1,9-20.3,9c-6.5,0-12.7-3-16.9-8c-4.2,0.2-16.8,0.8-20.3-1.8c-9.2-6.8-18.7-36.5-21-44.3l-33.4,14.4l25.6,48.4
				c0.1,0.1,0.1,0.2,0.1,0.3c0.4,1.5,10.6,35.7,12.2,47.9c2.7,21.3,0.5,84.4,0.4,87.1C35.9-465.8,35.2-465.1,34.3-465.1"/>
			<path id="Path_250" class="st3" d="M72.9-619.7c-0.2,0-0.4,0-0.6-0.1c-0.9-0.3-1.3-1.3-1-2.1c1.1-2.8,2-5.7,2.7-8.6
				c0.2-2.6,0.1-5.2-0.5-7.8l-0.6-2.3l2.3,0.3c4.2,0.5,8.3,0.6,12.5,0.5c4.5-0.5,8.9-1.2,13.3-2.1l1.8-0.4l0.2,1.9
				c0.2,2.7,0.6,5.5,1.2,8.1c1.4,3.4,3.3,6.5,5.6,9.3c0.6,0.7,0.5,1.7-0.2,2.3c-0.7,0.6-1.7,0.5-2.3-0.1c-2.7-3.1-4.8-6.6-6.3-10.4
				c-0.6-2.3-1-4.7-1.2-7.1c-3.9,0.8-7.9,1.4-11.9,1.8c-3.6,0.1-7.3,0-10.9-0.3c0.4,2.2,0.4,4.5,0.1,6.7c-0.3,2.4-2.6,8.6-2.9,9.3
				C74.2-620.1,73.6-619.7,72.9-619.7"/>
			<path id="Path_251" class="st3" d="M76.8-636.9c-0.1,0-0.3,0-0.4-0.1c-1-0.3-24.1-6.5-33.8-20.9c-9.1-13.6-14-32.2-14.2-33
				l-0.3-1.1l0.9-0.7c0.1-0.1,13.6-10.1,21.7-18.2c6-6,19.7-19.6,19.7-19.6l0.4-0.4l12.3-0.6l0.5,0.4c0.2,0.1,15.2,11.7,20.2,14.6
				c15,8.5,35.2,14,35.4,14.1l1.2,0.3l0,1.3c0,0.8-0.5,19.7-7.4,34.5c-9.9,21.2-30.8,27.3-31.6,27.6c-0.9,0.2-1.8-0.3-2-1.1
				c-0.2-0.9,0.3-1.8,1.1-2c0.2-0.1,20.3-6,29.5-25.8c5.6-12.1,6.8-27.5,7.1-31.9c-4.7-1.4-21.5-6.4-34.9-14
				c-4.8-2.7-17.4-12.4-20.1-14.4l-9.8,0.5c-2.4,2.4-13.9,13.8-19.2,19.1c-7.1,7.1-17.9,15.4-21.1,17.8c1.2,4.2,5.8,19.6,13.4,30.9
				c9,13.3,31.6,19.4,31.9,19.5c0.9,0.2,1.4,1.1,1.2,2C78.2-637.4,77.5-636.9,76.8-636.9"/>
			<path id="Path_252" class="st3" d="M90.8-661.9c-1.3,0-2.5-0.3-3.7-1c-0.8-0.5-1-1.5-0.5-2.3c0.5-0.8,1.5-1,2.3-0.5
				c0.3,0.2,2.7,1.5,6-1.5c1.3-1.3,2.2-3,2.5-4.8c0.2-0.9,1-1.5,1.9-1.3c0.9,0.2,1.5,1,1.3,1.9c-0.5,2.5-1.7,4.9-3.6,6.7
				C95.5-662.9,93.2-661.9,90.8-661.9"/>
			<path id="Path_253" class="st3" d="M77.8-679.2c-0.9,0-1.7-0.7-1.7-1.7c0-0.1,0-0.2,0-0.3c0-0.3,0.6-3.1,4.9-5.8
				c2.1-1.2,4.6-1.5,6.9-0.7c0.9,0.3,1.3,1.2,1,2.1s-1.2,1.3-2.1,1c0,0-0.1,0-0.1,0c-1.3-0.4-2.8-0.3-4,0.4
				c-2.9,1.8-3.4,3.5-3.4,3.5C79.3-679.8,78.6-679.2,77.8-679.2"/>
			<path id="Path_254" class="st3" d="M104.2-695.2c0-2.4,1.4-4.3,3.2-4.3s3.2,1.9,3.2,4.3s-1.4,4.3-3.2,4.3
				S104.2-692.8,104.2-695.2"/>
			<path id="Path_255" class="st3" d="M54.9-693.3c0-2.4,1.4-4.3,3.2-4.3s3.2,1.9,3.2,4.3s-1.4,4.3-3.2,4.3S54.9-691,54.9-693.3"/>
			<path id="Path_256" class="st3" d="M76-638.6c0,0-26.7-10.5-31.1-18.9C40.5-666,28.6-692,28.6-692l24.5-18.6L75.8-731l23.5,14.5
				l39.9,16.4c0,0-7.1,37.3-15.3,44.9c-6.1,5.7-22.9,15.5-22.9,15.5s1.4,10.9,4,14.1c5.3,6.4-1.5,1.9,17.5,4.2
				c30.9,3.7,31.2,21.5,31.1,18c-0.9-22.9,7.9-89.7-13.1-123.7c-21-2.2-48.9-3.6-66.3-2.3c-18.5,1.4-37,3.8-55.3,7.1l8.9,55.6
				l4.9-0.6l8.1,24.4l11.3,20l20.8,1.9l2.6-8.7L76-638.6z"/>
			<path id="Path_257" class="st3" d="M85.6-509c-4.5,0-9.4-2.3-13.2-6.2c-5-5.1-7.5-12.2-7.1-20.1c0.6-11,11-19.9,19.3-19.9
				c13.2,0,21.1,7.4,21.1,19.8c0,16.9-10.2,26.2-19.8,26.4l0,0C85.8-509,85.7-509,85.6-509 M84.6-553c-7.3,0-16.6,7.9-17.1,17.8
				c-0.4,7.2,1.9,13.8,6.5,18.5c3.5,3.6,7.9,5.7,11.9,5.6c8.5-0.2,17.6-8.8,17.6-24.2C103.5-546.6,96.6-553,84.6-553"/>
			<path id="Path_258" class="st3" d="M108.6-529.7c-1.8,0-3.7-0.1-5.5-0.4l0.3-2.2c5.1,0.7,11.1,0.3,11.5-1.2
				c0.3-1-2.8-4.4-6.4-7.2l-0.8-0.6l0.5-0.8c2.6-4.6,3.9-8.9,3.3-9.5c0,0-0.1-0.1-0.3-0.1c-1.9,0.1-6.2,4-8.7,6.7l-1.6-1.5
				c1.1-1.2,6.8-7.3,10.3-7.4c0.7,0,1.4,0.2,1.9,0.7c2.1,2.1-0.7,8.1-2.4,11.3c2.4,1.9,7.3,6.2,6.5,8.9
				C116.4-530.3,112.3-529.7,108.6-529.7"/>
			<path id="Path_259" class="st3" d="M63.9-530.5c-4.3,0-9.9-0.5-10.9-3.2c-0.9-2.7,3.9-6.2,6.9-8.1c-2-3.1-5-8.8-2.6-10.6
				c3-2.4,10.1,3.9,13.1,6.7l-1.5,1.6c-4.3-4.1-9.2-7.3-10.2-6.5c-0.5,0.6,1,4.6,3.7,8.7l0.6,1l-1,0.6c-4.1,2.5-7.1,5.4-6.9,6.1
				c0.5,1.4,7.1,2,12.7,1.6l0.2,2.2C67.1-530.6,65.6-530.5,63.9-530.5"/>
			<path id="Path_260" class="st3" d="M94.2-552.5c-0.9,0-1.7-0.7-1.7-1.7c0-0.2,0-0.4,0.1-0.6l3.3-8.3c0.3-0.8,1.3-1.3,2.1-0.9
				c0.8,0.3,1.3,1.3,0.9,2.1l-3.3,8.3C95.5-552.9,94.8-552.5,94.2-552.5"/>
			<path id="Path_261" class="st3" d="M74.8-550.3c-0.7,0-1.3-0.4-1.5-1l-3.3-8.3c-0.4-0.8,0-1.8,0.9-2.2c0.8-0.4,1.8,0,2.2,0.9
				c0,0,0,0,0,0.1l3.3,8.3c0.3,0.8-0.1,1.8-0.9,2.1C75.2-550.3,75-550.3,74.8-550.3"/>
			<path id="Path_262" class="st3" d="M67.2-538.4l37.5-0.3c0,0-4.7-16.8-19.4-15.8C71.2-553.4,67.2-538.4,67.2-538.4"/>
			<line id="Line_2" class="st7" x1="67.6" y1="-531.6" x2="103.3" y2="-531.5"/>
			
				<rect id="Rectangle_78" x="84.3" y="-549.4" transform="matrix(3.999968e-03 -1 1 3.999968e-03 616.6649 -443.9915)" class="st3" width="2.2" height="35.7"/>
			<line id="Line_3" class="st7" x1="68.6" y1="-523.1" x2="102.5" y2="-523.9"/>
			
				<rect id="Rectangle_79" x="68.6" y="-524.6" transform="matrix(0.9997 -2.357721e-02 2.357721e-02 0.9997 12.366 1.8715)" class="st3" width="33.9" height="2.2"/>
			<line id="Line_4" class="st7" x1="72.7" y1="-517" x2="99.5" y2="-518"/>
			
				<rect id="Rectangle_80" x="72.6" y="-518.6" transform="matrix(0.9992 -3.992252e-02 3.992252e-02 0.9992 20.7281 3.0247)" class="st3" width="26.9" height="2.2"/>
			<path id="Path_263" class="st3" d="M113-700.6c-0.6,0-1.1-0.3-1.4-0.8c-0.9-1.3-2.4-2.2-4-2.3c-3.4-0.1-4.8,1.5-4.8,1.5
				c-0.6,0.7-1.6,0.9-2.3,0.3c-0.7-0.6-0.9-1.6-0.3-2.3c0,0,0,0,0,0c0.1-0.1,2.4-3,7.5-2.7c2.7,0.1,5.2,1.6,6.7,3.9
				c0.5,0.8,0.2,1.8-0.6,2.3C113.6-700.6,113.3-700.6,113-700.6"/>
			<path id="Path_264" class="st3" d="M51.4-698.5c-0.9,0-1.7-0.7-1.7-1.7c0-0.3,0.1-0.5,0.2-0.8c0.1-0.1,1.9-3.3,7-4
				c2.7-0.3,5.4,0.7,7.3,2.7c0.6,0.7,0.5,1.7-0.2,2.3c-0.7,0.6-1.7,0.5-2.3-0.2l0,0c-1.1-1.2-2.7-1.7-4.3-1.6
				c-3.4,0.4-4.5,2.3-4.5,2.3C52.6-698.8,52-698.5,51.4-698.5"/>
			<path id="Path_265" class="st3" d="M149.6-436.1l-10.9-21.4l33.8-56.5L154-540.3l2.7-1.9l19.7,28.1l-33.9,56.8l7.8,15.1
				l48.9-62.8c3.7-3.8,4.3-9.7,1.3-14.2l-24.3-36l2.7-1.9l24.3,36c3.8,5.7,3.2,13.3-1.6,18.3L149.6-436.1z"/>
			<path id="Path_266" class="st0" d="M3.9-797.8c-0.9,0-1.7-0.7-1.7-1.7c0-0.3,0.1-0.5,0.2-0.8c0.1-0.1,7.1-14,8.2-18.9
				c1.2-5.5,2.2-14.9,0-17.9c-1.2-1.6-6.9-3.1-11.3-2.6c-1.8,0.2-3,0.8-3.4,1.5c0.1,0.9,2.8,3.3,5.6,5l0.7,0.4l0.1,0.8
				c0.2,1.9,1.6,18.5-7.6,20.6c-1.6,0.3-3.2-0.2-4.4-1.3c-1.8-1.5-3.7-4.2-3.7-6.7c0-3,2.7-8.1,3.5-9.7c-0.1-8.7-1.1-23.1-3.5-26.1
				c-0.7-0.8-3.4,0.6-8,4.3c-5.2,4.1-6.4,12.2-3.7,24.6c1.4,6.4,7.9,23.5,8,23.7c0.3,0.9-0.1,1.8-1,2.1c-0.9,0.3-1.8-0.1-2.1-1
				c-0.3-0.7-6.7-17.5-8.1-24.1c-3-13.8-1.4-22.9,4.9-27.9c5-4,9.7-7.2,12.6-3.8c2.3,2.8,3.3,10.5,3.8,17.3c0.7-1.3,2.3-2.7,5.8-3.1
				c4.9-0.7,12.1,0.8,14.4,3.9c3.7,5.1,1.1,18,0.6,20.6c-1.2,5.4-8.2,19.1-8.5,19.7C5.1-798.1,4.5-797.8,3.9-797.8 M-6.6-835.9
				c0.2,3.7,0.2,6.7,0.2,7.5v0.4l-0.2,0.4c-1.3,2.3-3.3,6.6-3.3,8.5c0.3,1.6,1.1,3.1,2.4,4.1c0.4,0.4,1,0.7,1.6,0.7
				c5.1-1.2,5.4-11.7,5.1-16.3C-2.8-832-5.4-833.9-6.6-835.9"/>
			<path id="Path_267" class="st3" d="M20.5-720.5c-0.8,0-1.4-0.5-1.6-1.3L5.2-780.1h3.5l13.4,57.6c0.2,0.9-0.4,1.8-1.3,2
				C20.8-720.5,20.6-720.5,20.5-720.5"/>
			<g id="Group_181">
				<path id="Path_268" class="st0" d="M-7.7-835.7l-0.1,7.3c0,0-7,16.2,2.4,15c9-1.1,6.8-17,6.8-17l-7.3-7.7L-7.7-835.7z"/>
				<path id="Path_269" class="st0" d="M-15.1-857.9c0,0,1-13.1,8.1-13.1c6.7,0,9.4,6.4,9.9,9.8c0.8,5,0,20.4,0,20.4s-4.3-0.4-5.8,0
					c-1.1,0.4-4.5,3.2-4.5,3.2s-1.2-13.5-3.8-17"/>
				<path id="Path_270" class="st0" d="M-6.9-859.6c-14.8,0-21.3-1.9-21.6-1.9c-0.7-0.2-1.2-0.9-1.2-1.7c1-10.8,3.2-21.4,6.8-31.6
					c5.2-14.9,14.2-22.6,14.6-22.9c0.3-0.3,0.8-0.4,1.2-0.4c0.4,0,0.8,0.3,1.1,0.6c0.4,0.5,10.8,13.2,16,23.5
					c4.7,9.2,7.8,19.1,9.2,29.4c0.1,0.7-0.3,1.3-0.9,1.6C18.2-862.8,11.7-859.6-6.9-859.6 M-26.2-864.4c2.5,0.5,8.7,1.5,19.3,1.5
					c13.7,0,20.4-1.8,22.7-2.6c-1.5-9.4-4.4-18.5-8.7-27c-4.1-8.1-11.7-18-14.5-21.5c-5.6,5.8-9.8,12.7-12.4,20.3
					C-23-884.2-25.1-874.3-26.2-864.4"/>
			</g>
			<path id="Path_271" class="st3" d="M22-720.5c-0.8,0-1.5-0.5-1.6-1.3l-4.1-19.1c-0.1-0.7,0.1-1.3,0.7-1.7l4.3-2.9
				c0.2-4.2,1-14.1,4.5-16.3c0.7-0.4,1.4-0.9,2-1.3c7.3-4.7,15.6-10,40.5-12.4c29.6-2.1,47.8,0.4,60.9,8.4c4.8,2.9,4.9,15,4.7,19.1
				c2.2,1.6,8.9,6.6,11.2,8.6c3.6,3.2,13,13,13.4,13.4c0.6,0.7,0.6,1.7,0,2.3c-0.3,0.3-0.8,0.5-1.3,0.5c-0.6-0.1-59.1-5.7-79.4-4.8
				c-14.8,0.7-55.2,7.3-55.6,7.4C22.2-720.5,22.1-720.5,22-720.5 M19.7-740.4l3.5,16.4c7.7-1.3,41-6.6,54.5-7.2
				c17.4-0.8,61.2,3.1,75.4,4.4c-3.1-3.2-7.9-8-10.1-10c-2.6-2.3-11.6-8.9-11.7-9c-0.5-0.3-0.7-0.9-0.7-1.4c0.3-6.1-0.5-15.4-3.1-17
				c-8.8-5.3-22.6-10.4-58.9-7.9c-24.1,2.3-32,7.4-39,11.9c-0.7,0.4-1.4,0.9-2.1,1.3c-1.5,0.9-2.8,8.2-3,14.5c0,0.5-0.3,1-0.7,1.3
				L19.7-740.4z"/>
			<path id="Path_272" class="st3" d="M44.8-744.4c-0.9,0-1.7-0.7-1.7-1.6c0-0.8,0.5-1.4,1.3-1.6c11-2.5,22.2-4,33.5-4.4
				c12.9-0.5,31,1.7,31.1,1.7c0.9,0.1,1.6,0.9,1.4,1.8c-0.1,0.9-0.9,1.6-1.8,1.4c-0.2,0-18-2.1-30.6-1.7c-11.1,0.4-22,1.8-32.8,4.3
				C45-744.4,44.9-744.4,44.8-744.4"/>
			<path id="Path_320" class="st0" d="M-20-780.1c-1.1-19.3,0-19,0-21.5c0-0.9,0.7-1.7,1.6-1.7h0c0.9,0,1.6,0.7,1.7,1.6
				c0,0.6-1.2,2.3,0.3,21.5"/>
			<path id="Path_321" class="st0" d="M5.2-780.1L2-798.4c-0.2-0.9,0.4-1.8,1.3-2c0.9-0.2,1.8,0.4,2,1.3l3.5,19"/>
		</g>
	</g>
</g>
<g id="Group_144" transform="translate(178.12 966)">
	<g>
		<defs>
			<rect id="SVGID_00000056420259301382580310000009950788035154423707_" x="-59.6" y="-918.1" width="215.4" height="752.2"/>
		</defs>
		<clipPath id="SVGID_00000164511359316648997860000004148558616459941529_">
			<use xlink:href="#SVGID_00000056420259301382580310000009950788035154423707_"  style="overflow:visible;"/>
		</clipPath>
		<g id="Group_143" style="clip-path:url(#SVGID_00000164511359316648997860000004148558616459941529_);">
			<path id="Path_273" class="st3" d="M41.7-217c-0.9,0-1.7-0.7-1.7-1.7c0-34-9.2-136.3-9.3-137.3c-0.1-0.9,0.6-1.7,1.5-1.8
				c0.9-0.1,1.7,0.6,1.8,1.5c0.1,1,9.3,103.5,9.3,137.6C43.3-217.8,42.6-217,41.7-217"/>
			<path id="Path_274" class="st3" d="M76.4-224.2c-0.9,0-1.7-0.7-1.7-1.7v-129.8c0-0.9,0.7-1.7,1.7-1.7c0.9,0,1.7,0.7,1.7,1.7
				v129.8C78-224.9,77.3-224.2,76.4-224.2"/>
			<path id="Path_275" class="st3" d="M95.3-220L95.3-220c-0.9,0-1.7-0.7-1.7-1.7l0,0l0.6-135.4c0-0.9,0.7-1.6,1.7-1.6h0
				c0.9,0,1.6,0.7,1.6,1.7L97-221.6C97-220.7,96.2-220,95.3-220"/>
			<path id="Path_276" class="st3" d="M130.9-222L130.9-222c-1,0-1.7-0.8-1.7-1.7c0,0,0,0,0,0l4.7-138.4c0-0.9,0.8-1.6,1.7-1.6
				c0.9,0,1.6,0.8,1.6,1.7l-4.7,138.4C132.6-222.7,131.8-222,130.9-222"/>
			<path id="Path_277" class="st3" d="M114.2-177.5c-16.4,0-21-7.4-21.2-7.7l-0.2-0.4l0.9-35.7c0-0.9,0.8-1.6,1.7-1.6
				c0.9,0,1.6,0.8,1.6,1.7l-0.9,34.7c1.1,1.4,6.5,6.5,21.2,5.7c15.3-0.9,20-4.3,21.2-5.4l-9.2-36.9c-0.2-0.9,0.3-1.8,1.2-2
				s1.8,0.3,2,1.2l9.5,38.3l-0.2,0.5c-0.3,0.7-3.6,6.5-24.3,7.7C116.3-177.5,115.2-177.5,114.2-177.5"/>
			<path id="Path_278" class="st3" d="M57.6-177.9c-12.5,0-20-6.1-20.3-6.4l-0.7-0.6l3.5-34c0.1-0.9,0.9-1.6,1.8-1.5
				s1.6,0.9,1.5,1.8l0,0L40-186.4c5.7,3.7,12.4,5.5,19.2,5.1c13.4-0.6,19.3-5,20.9-6.4l-5.4-37.9c-0.1-0.9,0.5-1.7,1.4-1.9
				c0.9-0.1,1.7,0.5,1.9,1.4l5.6,39.5l-0.5,0.6c-0.2,0.3-6.2,7.3-23.8,8.1C58.7-177.9,58.1-177.9,57.6-177.9"/>
			<path id="Path_279" class="st3" d="M60.5-165.9c-10.9,0-21.8-5.9-22.3-6.2l-0.8-0.4l-0.9-12.4l3.3-0.2l0.8,10.6
				c2.8,1.4,12.3,5.8,21.2,5.3c6.5-0.4,12.9-2,18.9-4.7l-0.4-12.6l3.3-0.1l0.4,14.7l-0.9,0.5c-6.6,3.2-13.9,5-21.2,5.5
				C61.5-165.9,61-165.9,60.5-165.9"/>
			<path id="Path_280" class="st3" d="M116-166.6c-7.5-0.1-15-1.8-21.8-5l-0.9-0.4l-0.6-13.5l3.3-0.1l0.5,11.6
				c2.8,1.2,12,4.8,22,4.2c7.8-0.6,15.3-2.7,22.2-6.4l-2-8.8l3.2-0.7l2.5,11.2l-1,0.6c-7.6,4.3-16,6.8-24.8,7.4
				C117.9-166.6,117-166.6,116-166.6"/>
			<path id="Path_281" class="st3" d="M100.2-197.9c-0.9,0-1.7-0.7-1.7-1.7c0-0.7,0.5-1.4,1.2-1.6c0,0,2.3-0.8,6.9-4.2
				c2-1.6,3.9-3.5,5.5-5.5c-4.8-0.1-17.3-0.7-21.8-5.7c-1.3-1.4-2-3.3-1.7-5.2c0.4-3.8,2.4-5.4,4-6.1c6.9-2.9,20.2,6.5,23.6,9.1
				c4.1-5.6,11-13.2,17.1-12.8c3,0.2,5.4,2.2,7.1,5.9c1.1,2.1,1,4.6-0.2,6.5c-3.9,6-18.5,6.7-22.4,6.8c-1.4,1.8-5.5,7-9,9.7
				c-5.1,3.8-7.6,4.7-7.9,4.7C100.6-197.9,100.4-197.9,100.2-197.9 M95.6-225.2c-0.6,0-1.2,0.1-1.8,0.3c-0.4,0.2-1.6,0.7-2,3.4
				c-0.1,1,0.2,1.9,0.9,2.6c3.5,3.8,15,4.6,20.2,4.7c0.3-0.5,0.8-1.2,1.3-2C109.1-220.1,100.5-225.2,95.6-225.2 M132.8-228.4
				c-4.3,0-10.5,6.7-14.8,12.7c6.7-0.2,17-1.7,19.3-5.3c0.6-1,0.6-2.3,0-3.4c-1.7-3.8-3.6-3.9-4.3-4
				C132.9-228.4,132.9-228.4,132.8-228.4"/>
			<path id="Path_282" class="st3" d="M132.2-202.6c-0.1,0-0.3,0-0.4-0.1c-3-1-6-2.3-8.7-3.9c-2-1.1-7.3-4.7-7.6-4.9
				c-0.8-0.5-1-1.5-0.4-2.3c0.5-0.8,1.5-1,2.3-0.4c0.1,0,5.4,3.7,7.3,4.7c2.5,1.5,5.2,2.7,8,3.6c0.9,0.2,1.4,1.2,1.2,2
				C133.6-203.1,132.9-202.6,132.2-202.6"/>
			<path id="Path_283" class="st3" d="M104.8-190.2c-0.9,0-1.7-0.7-1.7-1.7c0-0.6,0.3-1.2,0.9-1.5c4.4-2.2,9.2-3.5,14.1-4
				c9.8-0.8,14.9,1.1,15.1,1.2c0.9,0.3,1.3,1.3,1,2.1s-1.3,1.3-2.1,1c0,0-4.7-1.7-13.7-1c-4.5,0.4-8.8,1.7-12.8,3.6
				C105.3-190.2,105-190.2,104.8-190.2"/>
			<path id="Path_284" class="st3" d="M100.5-224.2c-0.8,0-1.5-0.6-1.6-1.3c-0.8-3.8-2.3-12.9,0.1-15.5c4.6-5.2,23.5-5.3,28.4-1.3
				c2.9,2.4,1.2,11.3,0.4,15c-0.2,0.9-1.1,1.4-2,1.2s-1.4-1.1-1.2-2l0,0c1.2-5.2,1.6-10.8,0.7-11.7c-3.9-3.2-20.8-2.5-23.8,0.9
				c-0.8,1-0.4,6.9,0.7,12.7c0.2,0.9-0.4,1.8-1.3,1.9c0,0,0,0,0,0C100.7-224.2,100.6-224.2,100.5-224.2"/>
			<path id="Path_285" class="st3" d="M46.8-197.3c-0.9,0-1.7-0.7-1.7-1.6c0-0.9,0.6-1.6,1.5-1.7c0,0,2.3-0.4,6.2-3
				c1.8-1.4,3.4-3.1,4.7-5c-7,1-20.4,2-25-3.4c-1.8-2.2-2.1-5-0.8-8.4c0.6-1.7,2-3,3.7-3.5c7-2,21,7.5,25.4,10.7
				c2.9-3.9,10.8-13.9,17.5-14.5c1.9-0.2,3.8,0.5,5.2,1.9c3.2,3.2,4.3,6.2,3.2,8.8c-2.8,6.9-19.7,7.9-25,8.1c-1.1,1.8-3.9,6-7,8.1
				c-4.6,3.1-7.4,3.5-7.7,3.6C46.9-197.4,46.9-197.3,46.8-197.3 M37.6-221c-0.4,0-0.9,0-1.3,0.2c-0.7,0.2-1.3,0.7-1.5,1.4
				c-1.3,3.3-0.1,4.7,0.2,5.1c3.3,3.9,14.8,3.3,22,2.3C50.8-216.2,42.2-221,37.6-221 M79-224.5c-0.1,0-0.2,0-0.4,0
				c-4.4,0.4-10.7,7.4-14.3,12c8.1-0.5,17.9-2.5,19.3-5.9c0.7-1.6-1-3.8-2.5-5.2C80.6-224.1,79.9-224.5,79-224.5"/>
			<path id="Path_286" class="st3" d="M75.4-200c-0.1,0-0.1,0-0.2,0c-0.3,0-6.9-0.8-11.2-3.8c-1.8-1.3-3.4-2.9-4.8-4.6
				c-0.6-0.7-0.4-1.8,0.3-2.3c0.7-0.5,1.7-0.4,2.3,0.3c1.2,1.5,2.6,2.8,4.1,3.9c3.6,2.5,9.6,3.3,9.7,3.3c0.9,0.1,1.6,0.9,1.5,1.8
				C77-200.6,76.3-200,75.4-200"/>
			<path id="Path_287" class="st3" d="M48.8-192.1c-0.9,0-1.7-0.7-1.7-1.7c0-0.4,0.1-0.8,0.4-1c0.2-0.3,5.2-6.3,13.3-6.6
				c4.5,0,8.9,1.1,12.8,3.3c0.8,0.5,1,1.5,0.6,2.3s-1.5,1-2.3,0.6c-3.4-1.8-7.1-2.8-11-2.9c-6.5,0.3-10.8,5.4-10.8,5.4
				C49.8-192.3,49.3-192.1,48.8-192.1"/>
			<path id="Path_288" class="st3" d="M46.5-219.2c-0.8,0-1.5-0.6-1.6-1.4c-0.5-3-2-13,0.2-16c2.8-3.7,9.5-4.5,12.2-4.6
				c5-0.3,12,0.6,15.2,3.9c2.9,3,1.3,11.9,0.8,14.6c-0.2,0.9-1.1,1.5-2,1.3s-1.5-1.1-1.3-2l0,0c0.9-4.7,1.2-10.5,0.1-11.6
				c-1.9-2-7.1-3.2-12.6-2.9c-4.7,0.3-8.4,1.5-9.8,3.3c-0.9,1.2-0.6,7.9,0.4,13.4c0.2,0.9-0.5,1.8-1.4,1.9
				C46.7-219.2,46.6-219.2,46.5-219.2"/>
			<path id="Path_289" class="st3" d="M24.2-444.2c0,0-1.2,14.1-2.2,30.4c-1.4,22.4,1.4,153.7,1.4,153.7
				c-0.4,6.4,4.5,11.9,10.8,12.2c0,0,0,0,0,0c0,0,22.6,5.7,46.8,0.1c6-1.4,1.5-135,4.4-135.2c3.5-0.2,1.7,129.6,8,132.3
				c14.8,6.4,41.6-0.3,41.6-0.3c5.2-0.9,8.7-5.9,7.8-11.1c0-0.1-0.1-0.3-0.1-0.4c0,0,0.1-124.8-3.3-146.4
				c-1.8-11.6-8.5-39.4-8.5-39.4s-33.1,10.8-54.6,11.8C50.3-435.1,24.2-444.2,24.2-444.2"/>
			<path id="Path_290" class="st3" d="M24-440.3L24-440.3c-1,0-1.7-0.8-1.7-1.7c0-0.6,1-43.9,1-77.2l-44.4-6.5
				c-0.9-0.1-1.5-1-1.4-1.9c0-0.1,0.1-0.3,0.1-0.4c0.2-0.4,19.1-44.7,30.7-65.4c9-16.1,17.1-25.8,32-27.8c4.4-0.6,22.6-0.2,23.3-0.2
				c0.5,0,1,0.3,1.3,0.7c3.5,4.6,8.9,7.3,14.7,7.3c12.6,0,17.9-8,18.1-8.3c0.3-0.5,0.9-0.8,1.5-0.8c3.3,0.1,32.6,1.6,39.2,9.8
				c10.3,13,12.9,68.4,13,70.7c0,0.6-0.3,1.2-0.8,1.5c-3,1.8-6.4,2.9-9.9,3.3c-4.7,0.5-9.5,0.2-14.1-0.9c0.3,8.7,0.6,17.5,0.9,22.2
				c0.8,11,5,70.8,5,70.8l-3.3,0.2c0,0-4.2-59.8-5-70.8c-0.8-11.8-1.6-47.2-1.6-47.6c0-0.9,0.7-1.7,1.6-1.7c0.9,0,1.7,0.7,1.7,1.6
				l0.6,21.8c4.5,1.1,9.2,1.4,13.8,1c2.7-0.3,5.3-1.1,7.7-2.3c-0.4-7.7-3.4-56.6-12.3-67.8c-4.6-5.8-26.6-8.1-35.8-8.5
				c-1.8,2.4-8.1,9-20.3,9c-6.6,0-12.7-3-16.9-8c-3.6-0.1-18.4-0.3-22,0.2c-13.5,1.8-21.1,11-29.5,26.1
				c-10,18.1-25.8,54.3-29.7,63.1l41.7,6.1c-0.1-3-0.3-9.2-0.5-15.3c-0.1-4.3-0.2-8.7-0.3-11.9c0-1.6,0-3,0-4c0-1.6,0-3,1.6-3.1
				c1.7-0.1,1.8,1.2,2,3.8c1.7,21.4-0.3,110.2-0.3,111.1C25.6-441,24.9-440.3,24-440.3"/>
			<path id="Path_291" class="st3" d="M141.3-378c-0.9,0-1.7-0.7-1.7-1.7c0-0.3,0.1-0.7,0.3-0.9c4.8-7.1,12.5-19.6,12.6-23.2
				c-0.2-2.7-0.7-5.3-1.4-7.8c-0.6-2.3-1.1-4.6-1.4-6.9c-0.1-2.3-0.3-5-0.4-7.8c-0.3-5.7-0.6-12.2-1.1-16.8
				c-0.7-6.2-0.2-38-0.1-49.9c0-2.3,0.1-3.9,0.1-4.3c0-18.5-0.8-43.7-0.8-43.9c0-0.9,0.7-1.7,1.6-1.7h0.1c0.9,0,1.6,0.7,1.7,1.6
				c0,0.3,0.8,25.5,0.8,44c0,0.4,0,2-0.1,4.4c-0.2,11.9-0.6,43.5,0,49.5c0.5,4.7,0.9,11.3,1.1,17c0.1,2.8,0.3,5.5,0.4,7.7
				c0.3,2.2,0.7,4.3,1.3,6.4c0.8,3.1,1.6,6.4,1.5,8.7c-0.1,5.7-11.8,23-13.1,25C142.3-378.3,141.8-378,141.3-378"/>
			<path id="Path_292" class="st3" d="M63.3-619c-0.2,0-0.4,0-0.6-0.1c-0.9-0.3-1.3-1.3-1-2.1c1.1-2.8,2-5.7,2.7-8.6
				c0.2-2.6,0.1-5.2-0.5-7.8l-0.6-2.3l2.3,0.3c4.2,0.5,8.3,0.6,12.5,0.5c4.5-0.5,8.9-1.2,13.3-2.1l1.8-0.4l0.2,1.9
				c0.2,2.7,0.6,5.5,1.2,8.1c1.4,3.4,3.3,6.5,5.6,9.3c0.6,0.7,0.6,1.7-0.1,2.3c-0.7,0.6-1.7,0.6-2.3-0.1c0,0,0,0,0,0
				c-2.7-3.1-4.8-6.6-6.3-10.4c-0.6-2.3-1-4.7-1.2-7.1c-3.9,0.8-7.9,1.4-11.9,1.8c-3.6,0.1-7.3,0-10.9-0.3c0.4,2.2,0.4,4.5,0.1,6.7
				c-0.3,2.4-2.6,8.6-2.9,9.3C64.6-619.5,64-619,63.3-619"/>
			<path id="Path_293" class="st3" d="M67.2-636.2c-0.1,0-0.3,0-0.4-0.1c-1-0.3-24.1-6.5-33.8-20.9c-9.2-13.7-11.2-46.4-11.3-47.8
				l0-0.2l0-0.2c0.1-0.3,6.1-32.1,47.5-36.6c35.2-3.8,59.1,25.8,59.3,26.1l0.3,0.4l0,0.5c0.1,1.4,1.5,34.5-5.5,49.4
				c-9.9,21.2-30.8,27.3-31.6,27.6c-0.9,0.2-1.8-0.3-2-1.1c-0.2-0.9,0.3-1.8,1.1-2c0.2-0.1,20.3-6,29.5-25.8
				c6.1-13.2,5.4-42.9,5.2-47.3c-2.9-3.5-24.8-27.8-56-24.5c-37.7,4.1-44.1,31-44.6,33.7c0.2,2.8,2.4,33.6,10.7,46
				c9,13.3,31.6,19.4,31.9,19.5c0.9,0.2,1.4,1.1,1.2,2C68.6-636.7,67.9-636.2,67.2-636.2"/>
			<path id="Path_294" class="st3" d="M81.2-661.2c-1.3,0-2.5-0.3-3.6-1c-0.8-0.5-1-1.5-0.5-2.3c0.5-0.7,1.5-1,2.2-0.5
				c0.3,0.2,2.7,1.5,6-1.5c1.3-1.3,2.2-3,2.5-4.8c0.2-0.9,1-1.5,1.9-1.3c0.9,0.2,1.5,1,1.3,1.9c-0.5,2.5-1.7,4.9-3.6,6.7
				C85.9-662.2,83.6-661.3,81.2-661.2"/>
			<path id="Path_295" class="st3" d="M68.2-678.5c-0.9,0-1.7-0.7-1.7-1.7c0-0.1,0-0.2,0-0.3c0-0.3,0.6-3.1,4.9-5.8
				c2.1-1.2,4.6-1.5,6.9-0.7c0.9,0.3,1.3,1.2,1,2.1c-0.3,0.9-1.2,1.3-2.1,1c0,0-0.1,0-0.1,0c-1.3-0.4-2.8-0.3-4,0.4
				c-2.9,1.8-3.4,3.5-3.4,3.5C69.7-679.1,69-678.5,68.2-678.5"/>
			<path id="Path_296" class="st3" d="M94.6-694.5c0-2.4,1.4-4.3,3.2-4.3s3.2,1.9,3.2,4.3c0,2.4-1.4,4.3-3.2,4.3
				S94.6-692.1,94.6-694.5"/>
			<path id="Path_297" class="st3" d="M45.3-692.6c0-2.4,1.4-4.3,3.2-4.3s3.2,1.9,3.2,4.3s-1.4,4.3-3.2,4.3S45.3-690.3,45.3-692.6"
				/>
			<path id="Path_298" class="st3" d="M106.9-699.9c-0.3,0-0.6-0.1-0.9-0.2l-1.3-0.8c-3.9-2.4-8.6-3-13-1.8
				c-0.9,0.3-1.8-0.2-2.1-1.1s0.2-1.8,1.1-2.1c0,0,0,0,0,0c5.3-1.5,11-0.7,15.6,2.1l1.3,0.8c0.8,0.5,1,1.5,0.5,2.3
				C108-700.2,107.5-699.9,106.9-699.9"/>
			<path id="Path_299" class="st3" d="M41.6-699.2c-0.9,0-1.7-0.7-1.7-1.7c0-0.6,0.3-1.1,0.8-1.4c4.7-2.9,10.4-3.6,15.6-2l1.5,0.4
				c0.9,0.2,1.4,1.1,1.2,2s-1.1,1.4-2,1.2c0,0,0,0-0.1,0l-1.5-0.4c-4.4-1.3-9.1-0.7-13,1.7C42.2-699.3,41.9-699.2,41.6-699.2"/>
			<path id="Path_300" class="st3" d="M-24.9-831.4v483.9c0,5,4,9,9,9h1.8c5,0,9-4,9-9v-483.9H-24.9z"/>
			<path id="Path_301" class="st0" d="M21.3-519.4c0,0-22.7,53.9-36.2,53.3c-14.6-0.6-21.7-24.5-23-58.8
				c-1.6-40.6-0.4-39.6,5.6-50.9c2.1-3.8,8-10.1,12.2-14.3c2.5-2.5,4.4-4.3,4.4-4.3s5.4,19,3.6,26.3c-0.9,3.4-6.4,12.4-6.4,12.4
				l-0.6,30.5"/>
			<path id="Path_302" class="st3" d="M-14.8-464.4c-0.1,0-0.2,0-0.3,0c-14.6-0.6-23.1-21.5-24.6-60.4c-1.6-39.2,5.1-50.6,5.9-51.8
				c0.7-1.2,8.4-14.7,16.1-17.7c1.3-0.6,2.9-0.4,4,0.5c4,3.2,3.1,16.2,1.6,26.5c-0.5,3.3-4.2,7.7-5.6,9.2l-0.1,32.8
				c0,0.9-0.7,1.6-1.7,1.7h0c-0.9,0-1.7-0.7-1.6-1.7c0,0,0,0,0,0l0.1-33.5c0-0.4,0.2-0.8,0.5-1.1c1.8-1.9,4.8-5.8,5.1-7.9
				c2-14.3,1.2-22.2-0.4-23.4c-0.1-0.1-0.3-0.2-0.8,0c-5.6,2.1-12.3,12.4-14.4,16.2c0,0.1-0.1,0.1-0.1,0.1
				c-0.1,0.1-6.9,10.7-5.3,49.9c1.4,36.4,9,56.7,21.4,57.2h0.2c9,0,26.4-33,35.2-54c0.4-0.8,1.3-1.2,2.2-0.8
				c0.8,0.4,1.2,1.3,0.9,2.1C21.1-514.7-0.6-464.4-14.8-464.4"/>
			<path id="Path_303" class="st3" d="M-5-524.9l0.4,56.3l-19,1.7c0,0,4.3-32.6,2.8-50.6c-0.9-10.6,0-40,0-40s8.6-6.9,8.6-10.5"/>
			<path id="Path_304" class="st0" d="M-19.8-589.1c0,0,8.2-6.6,9.6-4.4c4,6.6,2.2,12.7,1.6,16.4c-0.8,4.5-4.5,9.4-7.4,12.8
				c-1.2,1.5-5.3,5.1-5.3,5.1L-19.8-589.1z"/>
			<path id="Path_305" class="st3" d="M127.5-681.7c-0.9,0-1.6-0.7-1.6-1.7c0-0.8,0.6-1.6,1.5-1.6c0.4,0,9.3-1,9.3-8.7
				c0-1-0.3-1.9-1.1-2.6c-1.9-1.8-5.9-2-7.2-1.9c-0.9,0-1.7-0.7-1.7-1.6c0-0.9,0.6-1.6,1.5-1.7c0.3,0,6.4-0.4,9.7,2.8
				c1.4,1.3,2.1,3.1,2.1,5c0,8.6-8,11.6-12.3,12C127.6-681.7,127.6-681.7,127.5-681.7"/>
			<path id="Path_306" class="st3" d="M25.2-678.2c-0.1,0-0.1,0-0.2,0c-4.7-0.6-13.6-4-13.6-12.5c0-1.9,0.7-3.7,2.1-5
				c3.3-3.1,9.4-2.8,9.7-2.8c0.9,0.1,1.6,0.8,1.5,1.8c0,0,0,0,0,0c0,0.9-0.8,1.6-1.7,1.6c0,0,0,0-0.1,0c-1.4-0.1-5.4,0.1-7.2,1.9
				c-0.7,0.7-1.1,1.6-1.1,2.6c0,7.7,10.3,9.2,10.7,9.2c0.9,0.1,1.5,0.9,1.4,1.9C26.7-678.8,26-678.2,25.2-678.2"/>
			<path id="Path_307" class="st3" d="M18-696.3c0,0-0.7-12.2,0.4-20.9c1-8,6.8-15.3,6.8-15.3s-4.8-16,5.8-22
				c7.7-4.3,17.5,0.5,17.5,0.5s-0.3-9.9,12.1-14.5c11.5-4.3,21.9,5.7,21.9,5.7s8.4-9.4,20.8-6.1c8,2.1,10.1,14.7,10.1,14.7
				c5-0.5,10,1.1,13.7,4.4c9.7,8.2,4.1,21.5,4.1,21.5s1.2,3.8,1.8,6c2.4,10.1,2,23.2,2,23.2l-7.6-1.5l-0.1-14.1
				c0,0-20.8-27-53.7-25.9c-35.2,1.2-43.9,17.7-47.2,31.7c-0.7,3.1-1.7,12.1-1.7,12.1L18-696.3z"/>
			<path id="Path_308" class="st3" d="M37.9-727.2c0,0,3.8,8.5,11.9,8.5c9.3,0,16-10.7,16-10.7s3,9,12,8.4
				c11.3-0.7,10.3-8.5,10.3-8.5s7.1,7.9,15.3,6.9c6.6-0.8,10-9,10-9l-41.7-18.8L37.9-727.2z"/>
			<path id="Path_309" class="st3" d="M89.5-473.7L89.5-473.7l-27.4,0c-0.9,0-1.7-0.7-1.7-1.7c0-0.1,0-0.1,0-0.2
				c0-0.1,1.9-14.1,2.7-22.4c0.5-5.1,1.9-33.2,1.9-33.5c0-0.9,0.8-1.6,1.7-1.6c0.9,0,1.6,0.8,1.6,1.7c0,0.1,0,0.1,0,0.2
				c-0.1,1.2-1.5,28.4-2,33.6c-0.6,6.6-1.9,16.6-2.5,20.7l23.3,0c-2-6.7-3.7-13.5-4.9-20.4c-1-5.4-2.7-32.7-2.8-33.8
				c-0.1-0.9,0.6-1.7,1.5-1.8c0.9-0.1,1.7,0.6,1.8,1.5c0,0,0,0.1,0,0.1c0,0.3,1.8,28.2,2.7,33.5c1.4,7.5,3.2,14.9,5.5,22.2
				c0.3,0.9-0.2,1.8-1.1,2.1C89.8-473.7,89.7-473.7,89.5-473.7"/>
			<path id="Path_310" class="st3" d="M48.9-547.5c0-12.6,10.8-22.9,24.1-22.9s24.1,10.2,24.1,22.9c0,12.6-10.8,22.9-24.1,22.9
				S48.9-534.9,48.9-547.5"/>
			<path id="Path_311" class="st3" d="M83.8-506.1c-0.6,0-1.1-0.5-1.1-1.1c0-0.3,0.1-0.6,0.4-0.8l11.3-10c0.5-0.4,1.2-0.4,1.6,0.1
				c0.4,0.5,0.4,1.2-0.1,1.6l0,0l-11.3,10C84.3-506.2,84-506.1,83.8-506.1"/>
			<path id="Path_312" class="st3" d="M70.2-497.9c0-3,1.7-5.5,3.8-5.5s3.8,2.5,3.8,5.5s-1.7,5.5-3.8,5.5S70.2-494.8,70.2-497.9"/>
			<path id="Path_313" class="st3" d="M88.8-512.5c-0.5,0-1-0.4-1.1-0.9l-1.4-6c-0.1-0.6,0.2-1.2,0.8-1.3s1.2,0.2,1.3,0.8l1.4,6
				c0.1,0.6-0.2,1.2-0.8,1.3c0,0,0,0,0,0C88.9-512.5,88.8-512.5,88.8-512.5"/>
			<path id="Path_314" class="st3" d="M85.8-517.1c0-4.2,3.4-7.6,7.6-7.6s7.6,3.4,7.6,7.6s-3.4,7.6-7.6,7.6
				C89.2-509.6,85.8-512.9,85.8-517.1C85.8-517.1,85.8-517.1,85.8-517.1"/>
			<g id="Group_177">
				<path id="Path_315" class="st0" d="M-17.5-825.7c-0.1,0-0.1,0-0.2,0c-0.8,0-20.2-1.1-29.4-10.4c-14.9-14.9-12.4-69.5-12.1-75.7
					c0.1-2.1,2-3.7,4.1-3.6c2.1,0.1,3.7,1.9,3.6,4c-0.8,15.8-0.7,59.3,9.8,69.9c6,6,19.6,7.9,24.4,8.2c2.1,0.1,3.8,1.9,3.6,4.1
					C-13.8-827.3-15.5-825.7-17.5-825.7"/>
				<path id="Path_316" class="st0" d="M-14.1-825.7c-2.1,0-3.9-1.7-3.8-3.9c0-2,1.6-3.7,3.6-3.8c4.8-0.3,18.4-2.2,24.4-8.2
					c10.6-10.6,10.7-54,9.8-69.9c-0.1-2.1,1.6-3.9,3.7-4c2.1-0.1,3.9,1.5,4,3.6c0.3,6.2,2.8,60.8-12.1,75.7
					c-9.3,9.3-28.6,10.4-29.4,10.4C-14-825.7-14-825.7-14.1-825.7"/>
				<path id="Path_317" class="st0" d="M-14.7-824.4L-14.7-824.4c-2.2,0-3.9-1.8-3.9-3.9l0.6-85.9c0-2.1,1.7-3.8,3.9-3.8h0
					c2.1,0,3.8,1.8,3.8,3.9c0,0,0,0,0,0l-0.6,85.9C-10.8-826.1-12.5-824.4-14.7-824.4"/>
				<path id="Path_318" class="st0" d="M-10.9-841.3c0.3,2.1,1.8,3.8,3.8,4.3c4.9,1.2,13-1.4,13-1.4l-17.8,7.5"/>
				<path id="Path_319" class="st0" d="M-18.3-841.2c-0.3,2.1-1.8,3.8-3.8,4.3c-4.9,1.2-13.3-0.3-13.3-0.3l18,6.4"/>
				<rect id="Rectangle_83" x="-25.7" y="-827.1" class="st0" width="21" height="47"/>
			</g>
		</g>
	</g>
</g>
</svg>
