<?xml version="1.0" encoding="utf-8"?>
<!-- Generator: Adobe Illustrator 27.2.0, SVG Export Plug-In . SVG Version: 6.00 Build 0)  -->
<svg version="1.1" id="Layer_1" xmlns="http://www.w3.org/2000/svg" xmlns:xlink="http://www.w3.org/1999/xlink" x="0px" y="0px"
	 viewBox="0 0 1920.3 188.4" style="enable-background:new 0 0 1920.3 188.4;" xml:space="preserve">
<style type="text/css">
	.st0{fill:#20433C;}
</style>
<path id="Path_557" class="st0" d="M0,131.6c0,0,87.3-27.9,223.2-21.7c135.8,6.2,100.7,23.2,227.6,33.8
	c126.9,10.7,174.8-16.8,354.4-12.2c179.6,4.6,174.3,41.1,364.1,30.4c189.8-10.7,210.6-36.7,366.9-44.3s171.5,6.2,258.3,13.9
	c86.8,7.6,125.8,0,125.8,0v56.8H0V131.6z"/>
<g>
	<path class="st0" d="M922.8,110.7c2-18.4-1.3-29.7-8.2-42.3C905.2,51,884.9,32.2,883.8,39c-2.4,15.2-2.2,30.5,3.4,45.1
		C894.2,102.2,922.4,114.4,922.8,110.7z"/>
	<path class="st0" d="M969.6,33.6C948,48.4,934,73,929.1,97.7c3.1,0.6,6.2,1,9.3,1.3c2.7-12.4,10.3-25.6,21.9-37.5
		c12.2-12.6,27.2-22.4,42.3-27.6c1.5-0.5,3.1,0.3,3.6,1.8c0.5,1.5-0.3,3.1-1.8,3.6C976,49.1,950,75.3,944.3,99.2
		c22.1-0.1,42.9-10.1,59.3-24.3c24.3-21.2,27.9-34.5,34.2-54.6C1040.9,10.2,997.6,14.6,969.6,33.6z"/>
	<path class="st0" d="M984.4,168.9c-11.6,0-26.1-2.5-38-12.4c-10.5-8.7-17.4-22.4-18.8-37.5c-1.2-12.9,1.3-26.5,7.5-40.6
		c1.1-2.4,3.9-3.5,6.3-2.5c2.4,1.1,3.5,3.9,2.5,6.3c-5.5,12.6-7.7,24.6-6.7,35.9c1.2,12.6,6.8,23.9,15.4,31.1
		c10.2,8.5,25.9,11.9,43,9.3c2.6-0.4,5,1.4,5.4,4c0.4,2.6-1.4,5-4,5.4C993.5,168.4,989.2,168.9,984.4,168.9z"/>
</g>
</svg>
