<?xml version="1.0" encoding="UTF-8"?>
<svg id="Layer_2" data-name="Layer 2" xmlns="http://www.w3.org/2000/svg" viewBox="0 0 42.76 42.75">
  <defs>
    <style>
      .cls-1 {
        fill: #f8efe6;
      }
    </style>
  </defs>
  <path id="Icon_awesome-instagram" data-name="Icon awesome-instagram" class="cls-1" d="m21.39,10.41c-6.05,0-10.96,4.91-10.96,10.96s4.91,10.96,10.96,10.96,10.96-4.91,10.96-10.96h0c0-6.05-4.88-10.95-10.93-10.96-.01,0-.02,0-.04,0Zm0,18.09c-3.94,0-7.13-3.19-7.13-7.13s3.19-7.13,7.13-7.13,7.13,3.19,7.13,7.13h0c0,3.93-3.19,7.12-7.13,7.13Zm13.97-18.54c0,1.41-1.14,2.56-2.56,2.56-1.41,0-2.56-1.14-2.56-2.56s1.14-2.56,2.56-2.56h0c1.41,0,2.55,1.14,2.56,2.54,0,0,0,0,0,.01Zm7.26,2.6c-.16-3.43-.94-6.46-3.45-8.96S33.63.32,30.21.15C26.68-.05,16.1-.05,12.57.15c-3.42.16-6.45.94-8.96,3.44C1.1,6.09.32,9.13.15,12.55-.05,16.08-.05,26.66.15,30.19c.16,3.42.94,6.46,3.45,8.96,2.51,2.5,5.53,3.28,8.96,3.45,3.53.2,14.11.2,17.64,0,3.42-.16,6.46-.94,8.96-3.45s3.28-5.53,3.45-8.96c.2-3.53.2-14.1,0-17.63h0Zm-4.56,21.41c-.73,1.86-2.2,3.33-4.06,4.06-2.81,1.12-9.49.86-12.6.86s-9.8.25-12.6-.86c-1.86-.73-3.33-2.2-4.06-4.06-1.12-2.81-.86-9.49-.86-12.6s-.25-9.8.86-12.6c.73-1.86,2.2-3.33,4.06-4.06,2.81-1.12,9.49-.86,12.6-.86s9.8-.25,12.6.86c1.86.73,3.33,2.2,4.06,4.06,1.12,2.81.86,9.49.86,12.6s.26,9.8-.85,12.61h0Z"/>
</svg>