<?xml version="1.0" encoding="UTF-8"?>
<svg id="Layer_1" data-name="Layer 1" xmlns="http://www.w3.org/2000/svg" xmlns:xlink="http://www.w3.org/1999/xlink" viewBox="0 0 1388.12 61.85">
  <defs>
    <style>
      .cls-1 {
        clip-path: url(#clippath);
      }

      .cls-2 {
        fill: #859e86;
      }

      .cls-3 {
        fill: none;
      }
    </style>
    <clipPath id="clippath">
      <rect class="cls-3" width="1388.12" height="61.85"/>
    </clipPath>
  </defs>
  <g class="cls-1">
    <g id="Group_179" data-name="Group 179">
      <path id="Path_502" data-name="Path 502" class="cls-2" d="m1343.13,61.85h-112.32c-3.04,0-5.5-1.77-5.5-3.96V3.96c0-2.19,2.46-3.96,5.5-3.96h112.32c3.04,0,5.5,1.77,5.5,3.96v53.92c0,2.19-2.46,3.96-5.5,3.96"/>
      <rect id="Rectangle_101" data-name="Rectangle 101" class="cls-2" x="1287.1" y="16.42" width="101.02" height="31.18"/>
      <path id="Path_503" data-name="Path 503" class="cls-2" d="m1272.82,42.3h-.35c-250.77-1.28-999.37-3.7-1246.17-3.72-14.53,0-17.29-4.59-17.29-10.25s2.78-10.25,17.3-10.25h0c246.96.02,995.97,2.45,1246.85,3.72,14.53.07,26.14,4.72,25.95,10.39-.19,5.62-11.93,10.12-26.29,10.12"/>
    </g>
  </g>
</svg>