<?xml version="1.0" encoding="UTF-8"?>
<svg id="Layer_1" data-name="Layer 1" xmlns="http://www.w3.org/2000/svg" xmlns:xlink="http://www.w3.org/1999/xlink" viewBox="0 0 380.67 387.46">
  <defs>
    <style>
      .cls-1 {
        clip-path: url(#clippath-1);
      }

      .cls-2 {
        clip-path: url(#clippath);
      }

      .cls-3 {
        fill: #859e86;
      }

      .cls-4 {
        fill: none;
      }
    </style>
    <clipPath id="clippath">
      <rect class="cls-4" x="0" y="0" width="380.66" height="387.45"/>
    </clipPath>
    <clipPath id="clippath-1">
      <rect class="cls-4" x="0" y="0" width="380.66" height="387.45"/>
    </clipPath>
  </defs>
  <g id="Group_147" data-name="Group 147">
    <g class="cls-2">
      <g id="Group_146" data-name="Group 146">
        <path id="Path_324" data-name="Path 324" class="cls-3" d="m139.34,387.32l-50.36-17.33c-1.28-.44-1.96-1.83-1.52-3.11h0s11.59-33.69,11.59-33.69c.44-1.28,1.83-1.96,3.11-1.52,0,0,0,0,0,0l50.36,17.33c1.28.44,1.96,1.83,1.52,3.11,0,0,0,0,0,0l-11.59,33.69c-.44,1.28-1.83,1.96-3.11,1.52"/>
        <rect id="Rectangle_85" data-name="Rectangle 85" class="cls-3" x="134.03" y="347.49" width="18.08" height="42.15" transform="translate(-251.99 383.93) rotate(-71.01)"/>
      </g>
    </g>
  </g>
  <g id="Group_149" data-name="Group 149">
    <g class="cls-1">
      <g id="Group_148" data-name="Group 148">
        <path id="Path_325" data-name="Path 325" class="cls-3" d="m120.8,370.36c-.83,0-1.65-.16-2.42-.47C60.5,346.84,15.37,292.15,3.4,230.56-8.61,168.8,11.73,102.55,56.48,57.66,100.67,13.34,166.77-7.77,228.97,2.6c51.03,8.5,97.79,38.18,125.07,79.39,31.85,48.1,29.4,105.22,21.74,144.67-14.69,75.67-81.45,131.05-134.89,138.96-3.58.49-6.88-2.02-7.37-5.61-.48-3.52,1.94-6.78,5.45-7.34,49.03-7.26,110.36-58.45,123.95-128.51,7.19-37.05,9.59-90.55-19.8-134.95-25.31-38.24-68.79-65.79-116.3-73.7-58.1-9.68-119.82,10.01-161.07,51.39C24.03,108.76,5.06,170.51,16.25,228.07c11.14,57.32,53.13,108.22,106.97,129.66,3.36,1.34,5,5.15,3.66,8.5-.99,2.49-3.4,4.12-6.08,4.12"/>
      </g>
    </g>
  </g>
</svg>