<?xml version="1.0" encoding="UTF-8"?>
<svg id="Layer_3" data-name="Layer 3" xmlns="http://www.w3.org/2000/svg" viewBox="0 0 42.76 42.75">
  <defs>
    <style>
      .cls-1 {
        fill: #f8efe6;
      }
    </style>
  </defs>
  <g id="Icon_feather-linkedin" data-name="Icon feather-linkedin">
    <path class="cls-1" d="m41.14,41.65h-7.9c-.83,0-1.5-.67-1.5-1.5v-13.83c-.04-1.3-1.19-2.37-2.53-2.33-1.29.04-2.33,1.08-2.37,2.37v13.79c0,.83-.67,1.5-1.5,1.5h-7.91c-.83,0-1.5-.67-1.5-1.5v-13.83c0-7.36,5.99-13.36,13.36-13.36h0c3.57,0,6.92,1.39,9.44,3.91s3.91,5.88,3.91,9.44v13.83c0,.83-.67,1.5-1.5,1.5Zm-6.4-3h4.9v-12.33c0-2.77-1.08-5.37-3.03-7.32s-4.56-3.03-7.32-3.03h0c-5.71,0-10.36,4.65-10.36,10.36v12.33h4.91v-12.33c.09-2.92,2.41-5.23,5.28-5.32,2.98-.08,5.53,2.27,5.62,5.28v12.38Z"/>
    <path class="cls-1" d="m9.52,41.65H1.62c-.83,0-1.5-.67-1.5-1.5v-23.71c0-.83.67-1.5,1.5-1.5h7.9c.83,0,1.5.67,1.5,1.5v23.71c0,.83-.67,1.5-1.5,1.5Zm-6.4-3h4.9v-20.71H3.12v20.71Z"/>
    <path class="cls-1" d="m5.57,12.01C2.57,12.01.12,9.56.12,6.56S2.57,1.1,5.57,1.1c3.01,0,5.45,2.45,5.45,5.45s-2.45,5.45-5.45,5.45Zm0-7.9c-1.35,0-2.45,1.1-2.45,2.45s1.1,2.45,2.45,2.45,2.45-1.1,2.45-2.45-1.1-2.45-2.45-2.45Z"/>
  </g>
</svg>