<?xml version="1.0" encoding="UTF-8"?>
<svg id="Layer_3" data-name="Layer 3" xmlns="http://www.w3.org/2000/svg" xmlns:xlink="http://www.w3.org/1999/xlink" viewBox="0 0 126.21 166.12">
  <defs>
    <style>
      .cls-1 {
        fill: #bfa78f;
      }

      .cls-2 {
        fill: #f8efe6;
      }

      .cls-3 {
        clip-path: url(#clippath);
      }

      .cls-4 {
        fill: none;
      }
    </style>
    <clipPath id="clippath">
      <rect class="cls-4" x="23.92" y="24.49" width="77.56" height="117.13"/>
    </clipPath>
  </defs>
  <g class="cls-3">
    <g id="Group_196" data-name="Group 196">
      <path id="Path_521" data-name="Path 521" class="cls-1" d="m52.87,141.57c-1.42,0-2.61-1.08-2.74-2.5-.69-7.44.76-15.34,4.31-23.47.61-1.4,10.2-13.45,11.59-12.84s-5.93,13.65-6.54,15.05c-3.18,7.26-4.48,14.24-3.88,20.74.14,1.52-.97,2.86-2.49,3-.09,0-.17.01-.26.01"/>
      <path id="Path_522" data-name="Path 522" class="cls-1" d="m47.34,134.27c1.14-10.62-.78-17.17-4.73-24.48-5.44-10.06-17.23-20.94-17.84-17.01-1.38,8.8-1.27,17.64,1.98,26.06,4.05,10.49,20.37,17.56,20.6,15.43"/>
      <path id="Path_523" data-name="Path 523" class="cls-1" d="m52.04,127.85c2.23-11.22,8.55-22.41,18.4-29.13,12.69-8.65,32.39-10.63,30.97-6.08-2.86,9.17-4.49,15.21-15.55,24.84-9.1,7.93-21.28,12.96-33.83,10.37"/>
      <path id="Path_524" data-name="Path 524" class="cls-2" d="m57.28,131.49c-.06,0-.12,0-.18-.01-.71-.1-1.21-.76-1.11-1.47,0,0,0,0,0,0,.86-6.09,4.49-12.71,10.23-18.64,5.36-5.6,11.94-9.89,19.22-12.54.68-.24,1.42.12,1.65.8.23.68-.12,1.42-.8,1.65h0c-13.7,4.75-26.14,17.79-27.73,29.09-.09.64-.64,1.12-1.29,1.12"/>
      <path id="Path_525" data-name="Path 525" class="cls-1" d="m52.04,141.63h-.07c-1.66-.04-2.97-1.41-2.93-3.07l1.35-59.53c.04-1.66,1.41-2.97,3.07-2.93,1.66.04,2.97,1.41,2.93,3.07l-1.35,59.52c-.04,1.63-1.37,2.93-3,2.93"/>
      <path id="Path_526" data-name="Path 526" class="cls-1" d="m69.39,27.57c-.14-.67-.5-1.2-1.48-.87-8.14,2.74-38.56,15.17-24.06,38.77,3.53,6.09,11.14,8.46,17.5,5.44,14.83-6.74,9.4-36.85,8.04-43.34"/>
      <path id="Path_527" data-name="Path 527" class="cls-1" d="m38.34,28.11c-.88-.32-1.86.13-2.18,1.01-.02.06-.04.12-.06.19-2,8.38-8.55,42.78,18.49,42.78,7.72,0,14.6-8.2,15.43-14.85,1.96-15.74-24.44-26.46-31.68-29.12"/>
      <path id="Path_528" data-name="Path 528" class="cls-1" d="m45.32,33.03s1.26-2.52,2.1-3.99c.88-1.54,2.04-2.91,3.43-4.02.76-.64,1.85-.7,2.68-.16,1.36.82,2.55,1.89,3.51,3.15,1.48,1.86,2.78,3.86,3.88,5.97l-7.84,5.96-7.75-6.91Z"/>
    </g>
  </g>
</svg>