<?xml version="1.0" encoding="utf-8"?>
<!-- Generator: Adobe Illustrator 27.3.1, SVG Export Plug-In . SVG Version: 6.00 Build 0)  -->
<svg version="1.1" id="Lag_1" xmlns="http://www.w3.org/2000/svg" xmlns:xlink="http://www.w3.org/1999/xlink" x="0px" y="0px"
	 viewBox="0 0 211.4 83.9" style="enable-background:new 0 0 211.4 83.9;" xml:space="preserve">
<style type="text/css">
	.st0{fill:#20433C;}
	.st1{fill:#F8EFE6;}
	.st2{font-family:'Futura-CondensedMedium';}
	.st3{font-size:34.3417px;}
	.st4{letter-spacing:3;}
</style>
<path class="st0" d="M28.1,82.6c-0.2,0-0.3,0-0.5-0.1c-12.1-5-21.5-16.8-24-30.1C1,39.1,5.3,24.8,14.6,15.1c9.2-9.6,23-14.1,36-11.9
	C61.3,5,71.1,11.4,76.8,20.3c6,9.4,7.5,21.5,3.8,31.6c-1.9,5.1-5.1,9.7-9.2,13.4c-4.3,3.7-9.2,6-14.4,6.8c-3.3,0.5-9.6,0.7-14.5-3.4
	c-3-2.6-5-6.6-5.4-11.1c-0.3-3.8,0.4-7.9,2.1-12c0.3-0.7,1.1-1,1.8-0.7c0.7,0.3,1,1.1,0.7,1.9c-1.6,3.7-2.2,7.3-1.9,10.6
	c0.3,3.7,1.9,7.1,4.4,9.2c2.9,2.5,7.4,3.5,12.3,2.8c9.4-1.4,18-8.8,21.5-18.4c3.4-9.3,2-20.4-3.5-29.1C69.2,13.6,60.2,7.7,50.2,6
	c-12.1-2.1-25,2.2-33.7,11.1c-4.2,4.4-7.4,10-9.3,16.1c-1.8,6.2-2.2,12.6-1.1,18.7c2.3,12.4,11.1,23.4,22.4,28
	c0.7,0.3,1,1.1,0.8,1.8C29.1,82.2,28.6,82.6,28.1,82.6z"/>
<g>
	<path class="st0" d="M37.5,51.3c1.4-7.3,5.4-14.6,11.6-19c8-5.6,20.4-6.9,19.5-4c-1.8,6-2.8,9.9-9.8,16.2
		C53.1,49.7,45.4,53,37.5,51.3z"/>
	<path class="st0" d="M35.7,55.1c0.6-5.4-0.4-8.8-2.3-12.5c-2.7-5.2-8.5-10.7-8.9-8.7c-0.7,4.5-0.6,9,1,13.4
		C27.5,52.6,35.6,56.2,35.7,55.1z"/>
	<g>
		<path class="st0" d="M40.8,52.8c1.1-8,9.5-16.6,18-19.6"/>
		<path class="st1" d="M40.8,53.7c0,0-0.1,0-0.1,0c-0.4-0.1-0.8-0.5-0.7-1c0.5-4,2.8-8.3,6.5-12.2c3.5-3.7,7.8-6.6,12.1-8.2
			c0.4-0.2,0.9,0.1,1,0.5c0.1,0.4-0.1,0.9-0.5,1.1c-8.6,3.1-16.5,11.6-17.5,19C41.6,53.3,41.2,53.7,40.8,53.7z"/>
	</g>
</g>
<polygon class="st0" points="28.1,83.9 19.5,78.1 21.9,74.3 30.6,80.1 "/>
<path class="st0" d="M21.2,81.8l-5.5-4c-1.2-0.9-1.5-2.7-0.7-3.9l2-3c0.9-1.3,2.6-1.6,3.8-0.7l5.5,4c1.2,0.9,1.5,2.7,0.7,3.9l-2,3
	C24.1,82.4,22.4,82.7,21.2,81.8z"/>
<text transform="matrix(1.0005 0 0 1 106.063 55.3345)" class="st0 st2 st3 st4">REBOOT</text>
</svg>
