<?xml version="1.0" encoding="utf-8"?>
<!-- Generator: Adobe Illustrator 27.2.0, SVG Export Plug-In . SVG Version: 6.00 Build 0)  -->
<svg version="1.1" id="Layer_1" xmlns="http://www.w3.org/2000/svg" xmlns:xlink="http://www.w3.org/1999/xlink" x="0px" y="0px"
	 viewBox="0 0 50 50" style="enable-background:new 0 0 50 50;" xml:space="preserve">
<style type="text/css">
	.st0{clip-path:url(#SVGID_00000160913498718952864020000002794300695208002966_);}
	.st1{fill:#20433C;}
	.st2{fill:#F8EFE6;}
</style>
<g>
	<defs>
		<rect id="SVGID_1_" x="1.2" y="1" width="47.6" height="48.6"/>
	</defs>
	<clipPath id="SVGID_00000056406468518776491120000018072594220140936378_">
		<use xlink:href="#SVGID_1_"  style="overflow:visible;"/>
	</clipPath>
	<g id="Group_23" style="clip-path:url(#SVGID_00000056406468518776491120000018072594220140936378_);">
		<path id="Path_65" class="st1" d="M16.3,48.7c-0.1,0-0.2,0-0.3-0.1c-7.5-3.3-12.8-10-14.4-18c-1.5-8.1,1-16.3,6.6-22.3
			C13.9,2.7,21.9,0,29.8,1.3c6.4,1.1,12,4.8,15.6,10.2c3.6,5.6,4.4,12.6,2.3,18.9c-1.1,3.1-3,5.8-5.5,8c-2.4,2.1-5.4,3.5-8.6,4.1
			c-2,0.3-5.8,0.4-8.6-2c-1.9-1.7-3-4.1-3.2-6.6c-0.2-2.5,0.3-4.9,1.3-7.2c0.2-0.4,0.6-0.6,1.1-0.4c0,0,0,0,0,0
			c0.4,0.2,0.6,0.7,0.4,1.1c-0.9,2-1.3,4.2-1.1,6.3c0.1,2.1,1.1,4.1,2.6,5.5c2.1,1.6,4.8,2.2,7.4,1.7c5.9-1.1,10.8-5.3,12.8-11
			c2-5.8,1.2-12.2-2.1-17.4C40.7,7.4,35.5,4,29.5,3C22.2,1.8,14.7,4.2,9.4,9.6c-2.6,2.7-4.5,6-5.5,9.6c-1.1,3.6-1.3,7.4-0.6,11.2
			c1.4,7.4,6.4,13.7,13.4,16.7c0.4,0.2,0.6,0.7,0.5,1.1C17,48.5,16.6,48.7,16.3,48.7"/>
		<path id="Path_66" class="st1" d="M21.9,30c0.8-4.5,3.3-8.6,6.9-11.3c4.8-3.4,12.2-4.1,11.7-2.4c-1.1,3.6-1.7,5.9-5.9,9.7
			C31.3,29.1,26.7,31,21.9,30"/>
		<path id="Path_67" class="st1" d="M20.9,32.3c0.4-2.6-0.1-5.2-1.4-7.5c-1.6-3.1-5.1-6.4-5.3-5.2c-0.5,2.7-0.3,5.4,0.6,8
			C16,30.8,20.8,33,20.9,32.3"/>
		<path id="Path_68" class="st1" d="M23.9,30.9c0.7-4.8,5.7-9.9,10.8-11.7"/>
		<path id="Path_69" class="st2" d="M23.9,31.4c-0.3,0-0.5-0.2-0.5-0.5c0,0,0-0.1,0-0.1c0.5-2.8,1.9-5.3,3.9-7.3
			c2-2.2,4.5-3.8,7.2-4.9c0.3-0.1,0.5,0,0.6,0.3c0,0,0,0,0,0c0.1,0.3,0,0.5-0.3,0.6C29.7,21.5,25,26.6,24.4,31
			C24.4,31.3,24.2,31.4,23.9,31.4"/>
		<path id="Path_70" class="st1" d="M16.3,49.5L11.2,46l1.5-2.3l5.2,3.5L16.3,49.5z"/>
		<path id="Path_71" class="st1" d="M12.2,48.2l-3.3-2.4c-0.7-0.6-0.9-1.6-0.4-2.4l1.2-1.8c0.5-0.7,1.5-0.9,2.2-0.4c0,0,0,0,0.1,0
			l3.3,2.4c0.7,0.6,0.9,1.6,0.4,2.4l-1.2,1.8C14,48.6,13,48.8,12.2,48.2C12.2,48.3,12.2,48.3,12.2,48.2"/>
	</g>
</g>
</svg>
