<?xml version="1.0" encoding="UTF-8"?>
<svg id="Layer_2" data-name="Layer 2" xmlns="http://www.w3.org/2000/svg" xmlns:xlink="http://www.w3.org/1999/xlink" viewBox="0 0 126.21 166.12">
  <defs>
    <style>
      .cls-1 {
        fill: #bfa78f;
      }

      .cls-2 {
        fill: #f8efe6;
      }

      .cls-3 {
        clip-path: url(#clippath);
      }

      .cls-4 {
        fill: none;
      }
    </style>
    <clipPath id="clippath">
      <rect class="cls-4" x="16.89" y="0" width="92.9" height="166.11"/>
    </clipPath>
  </defs>
  <g class="cls-3">
    <g id="Group_198" data-name="Group 198">
      <path id="Path_529" data-name="Path 529" class="cls-1" d="m45.84,166.06c-1.42,0-2.61-1.08-2.74-2.5-.69-7.44.76-15.34,4.31-23.47.61-1.4,10.51-13.6,11.9-12.99s-6.24,13.8-6.85,15.2c-3.18,7.26-4.48,14.24-3.87,20.74.14,1.52-.97,2.86-2.49,3-.09,0-.17.01-.26.01"/>
      <path id="Path_530" data-name="Path 530" class="cls-1" d="m40.3,158.77c1.14-10.62-.78-17.17-4.73-24.48-5.44-10.06-17.23-20.95-17.84-17.01-1.38,8.8-1.27,17.64,1.98,26.06,4.05,10.49,20.37,17.56,20.6,15.43"/>
      <path id="Path_531" data-name="Path 531" class="cls-1" d="m45,152.34c2.23-11.22,8.55-22.41,18.4-29.13,12.69-8.65,32.39-10.63,30.97-6.08-2.86,9.17-4.49,15.21-15.55,24.84-9.1,7.93-21.28,12.96-33.83,10.37"/>
      <path id="Path_532" data-name="Path 532" class="cls-2" d="m50.25,155.98c-.06,0-.12,0-.18-.01-.71-.1-1.21-.76-1.11-1.47,0,0,0,0,0,0,.86-6.09,4.49-12.71,10.23-18.64,5.36-5.6,11.94-9.89,19.22-12.54.68-.24,1.42.12,1.65.8.23.68-.12,1.42-.8,1.65-13.7,4.75-26.14,17.79-27.73,29.09-.09.64-.64,1.12-1.29,1.12"/>
      <path id="Path_533" data-name="Path 533" class="cls-1" d="m44.45,166.12h-.07c-1.66-.04-2.97-1.41-2.93-3.07l2.46-108.74c.04-1.63,1.37-2.93,3-2.93h.07c1.66.04,2.97,1.41,2.93,3.07l-2.46,108.74c-.04,1.63-1.37,2.93-3,2.93"/>
      <path id="Path_534" data-name="Path 534" class="cls-1" d="m63.59,3.07c-.14-.67-.5-1.2-1.48-.87-8.14,2.74-38.56,15.17-24.06,38.77,3.53,6.09,11.14,8.46,17.5,5.44,14.83-6.74,9.4-36.85,8.04-43.34"/>
      <path id="Path_535" data-name="Path 535" class="cls-1" d="m32.53,3.62c-.88-.32-1.86.13-2.18,1.01-.02.06-.04.12-.06.19-2,8.38-8.55,42.78,18.49,42.78,7.72,0,14.6-8.2,15.43-14.85,1.97-15.74-24.43-26.46-31.68-29.12"/>
      <path id="Path_536" data-name="Path 536" class="cls-1" d="m39.52,8.54s1.26-2.52,2.1-3.99c.88-1.54,2.04-2.91,3.42-4.02.76-.64,1.85-.7,2.68-.16,1.36.82,2.55,1.89,3.51,3.15,1.48,1.86,2.78,3.86,3.88,5.97l-7.84,5.96-7.75-6.91Z"/>
      <path id="Path_537" data-name="Path 537" class="cls-1" d="m109.57,65.72c.29-.29.28-.76,0-1.05-.09-.09-.2-.15-.31-.18-5.71-2.84-28.2-12.27-32.97,7.72-1.35,5.05,1.41,10.28,6.33,12.03,11.32,4.24,24.28-14.4,26.96-18.52"/>
      <path id="Path_538" data-name="Path 538" class="cls-1" d="m92.99,49.72c-.29-.63-1.04-.91-1.67-.62-.05.02-.09.05-.13.07-5.45,3.35-26.93,17.96-12.74,32.15,4.05,4.05,11.96,3.36,15.89.3,9.29-7.23,1.06-26.71-1.35-31.91"/>
      <path id="Path_539" data-name="Path 539" class="cls-1" d="m94.08,55.96s1.99-.66,3.2-.99c1.27-.35,2.6-.45,3.91-.31.73.06,1.34.6,1.49,1.33.28,1.14.35,2.33.19,3.49-.2,1.75-.57,3.48-1.1,5.17l-7.24-.99-.44-7.69Z"/>
      <path id="Path_540" data-name="Path 540" class="cls-1" d="m47.14,109.81c-1.66,0-3-1.34-3-3,0-.84.35-1.64.97-2.21l24.5-22.5c1.22-1.12,3.12-1.04,4.24.18s1.04,3.12-.18,4.24h0l-24.5,22.5c-.55.51-1.28.79-2.03.79"/>
    </g>
  </g>
</svg>