<?xml version="1.0" encoding="utf-8"?>
<!-- Generator: Adobe Illustrator 27.2.0, SVG Export Plug-In . SVG Version: 6.00 Build 0)  -->
<svg version="1.1" id="Layer_1" xmlns="http://www.w3.org/2000/svg" xmlns:xlink="http://www.w3.org/1999/xlink" x="0px" y="0px"
	 viewBox="0 0 1000 578.2" style="enable-background:new 0 0 1000 578.2;" xml:space="preserve">
<style type="text/css">
	.st0{fill:#F8EFE6;}
</style>
<path class="st0" d="M34.2,561.2c-0.1-0.9-3.2-23.3,2.8-53.5c5.6-27.9,20.3-68,59-100.5c75-63.1,182.7-74.9,277.7-85.3
	c57-6.2,85.7-23.7,99.8-37.3c9.3-9,12.8-15.9,12.9-16l9,4.4c-0.2,0.3-4.2,8.4-14.9,18.8c-15.2,14.7-45.8,33.5-105.6,40.1
	c-93.6,10.2-199.7,21.8-272.4,83c-36.3,30.6-50.3,68.2-55.5,94.4c-5.8,28.6-2.8,50.2-2.8,50.5L34.2,561.2z"/>
<path class="st0" d="M958.9,546.2c0-0.2-0.8-17.9-10.3-42.7c-8.7-22.8-26.9-56.5-63.5-87.3c-72.7-61.1-178.8-72.7-272.4-83
	c-100.8-11-125.2-57.4-126.2-59.4l8.9-4.5l-4.5,2.2l4.5-2.3c0.1,0.1,5.8,11,23.1,22.9c16.1,11.2,45.6,25.6,95.3,31
	c95,10.4,202.7,22.2,277.7,85.3c38.4,32.3,57.4,67.7,66.5,91.8c10,26.2,10.8,44.6,10.8,45.4L958.9,546.2z"/>
<g id="Group_28" transform="translate(-851.521 -5066.651)">
	<path id="Path_74" class="st0" d="M886,5578.9l10.5,0.3c4.9,0.1,8.7,4.2,8.6,9l-0.5,19.5c-0.1,4.9-4.2,8.7-9,8.6c0,0,0,0,0,0
		l-10.5-0.3c-4.9-0.1-8.7-4.2-8.6-9c0,0,0,0,0,0l0.5-19.5C877.1,5582.6,881.2,5578.8,886,5578.9"/>
	
		<rect id="Rectangle_31" x="880.3" y="5614.2" transform="matrix(1.699754e-02 -0.9999 0.9999 1.699754e-02 -4746.0112 6416.5889)" class="st0" width="20" height="15.5"/>
</g>
<g id="Group_29" transform="matrix(1, -0.017, 0.017, 1, -496.095, -5055.487)">
	<path id="Path_74-2" class="st0" d="M887.2,5579.2l10.5,0.3c4.9,0.1,8.7,4.2,8.6,9l-0.5,19.5c-0.1,4.9-4.2,8.7-9,8.6c0,0,0,0,0,0
		l-10.5-0.3c-4.9-0.1-8.7-4.2-8.6-9c0,0,0,0,0,0l0.5-19.5C878.3,5582.9,882.4,5579,887.2,5579.2"/>
	
		<rect id="Rectangle_31-2" x="883.7" y="5612.2" transform="matrix(-0.9999 -1.699501e-02 1.699501e-02 -0.9999 1687.2998 11258.7646)" class="st0" width="15.5" height="20"/>
</g>
<g id="Group_30" transform="translate(-996.96 -4800.975) rotate(-11)">
	<path id="Path_74-3" class="st0" d="M899.3,5582.6l10.5,0.3c4.9,0.1,8.7,4.2,8.6,9l-0.5,19.5c-0.1,4.9-4.2,8.7-9,8.6c0,0,0,0,0,0
		l-10.5-0.3c-4.9-0.1-8.7-4.2-8.6-9c0,0,0,0,0,0l0.5-19.5C890.4,5586.3,894.4,5582.4,899.3,5582.6"/>
	
		<rect id="Rectangle_31-3" x="895.8" y="5615.6" transform="matrix(-0.9999 -1.699504e-02 1.699504e-02 -0.9999 1711.3215 11265.793)" class="st0" width="15.5" height="20"/>
</g>
<polygon class="st0" points="488.5,546.3 484.3,-3.7 494.3,-3.9 498.5,546.2 "/>
</svg>
