<?xml version="1.0" encoding="UTF-8"?>
<svg id="Layer_2" data-name="Layer 2" xmlns="http://www.w3.org/2000/svg" xmlns:xlink="http://www.w3.org/1999/xlink" viewBox="0 0 130.65 109.72">
  <defs>
    <style>
      .cls-1 {
        fill: #bfa78f;
      }

      .cls-2 {
        clip-path: url(#clippath);
      }

      .cls-3 {
        fill: none;
      }
    </style>
    <clipPath id="clippath">
      <rect class="cls-3" x="11.84" width="108.08" height="109.72"/>
    </clipPath>
  </defs>
  <g class="cls-2">
    <g id="Group_33" data-name="Group 33">
      <path id="Path_82" data-name="Path 82" class="cls-1" d="m50.4,109.62l-12.28-4.23c-.92-.32-1.41-1.32-1.09-2.24l2.6-7.54c.32-.92,1.32-1.4,2.24-1.09l12.28,4.23c.92.32,1.41,1.32,1.09,2.24l-2.6,7.54c-.32.92-1.32,1.41-2.24,1.09"/>
      <rect id="Rectangle_33" data-name="Rectangle 33" class="cls-1" x="49.9" y="98.66" width="5.13" height="11.97" transform="translate(-63.56 120.2) rotate(-71.01)"/>
      <path id="Path_83" data-name="Path 83" class="cls-1" d="m46.14,105.15c-.24,0-.47-.05-.69-.13-16.77-6.95-29-21.77-32.65-39.56-3.32-17.84,2.31-36.18,15.07-49.09C40.79,3.67,58.97-2.14,76.85.74c14.49,2.41,27.76,10.84,35.51,22.54,9.04,13.66,8.35,29.88,6.17,41.08-4.17,21.49-23.13,37.21-38.3,39.46-1.02.13-1.95-.59-2.08-1.61-.13-.99.55-1.9,1.53-2.07,13.92-2.06,31.33-16.6,35.19-36.49,2.04-10.52,2.72-25.71-5.62-38.32-7.19-10.86-19.53-18.68-33.02-20.93-16.7-2.68-33.68,2.74-45.73,14.6-11.89,12.03-17.14,29.12-14.05,45.75,3.39,16.55,14.77,30.34,30.37,36.82.95.38,1.42,1.46,1.04,2.42-.28.71-.97,1.17-1.73,1.17"/>
      <path id="Path_84" data-name="Path 84" class="cls-1" d="m41.1,40.36c.03-3.21,2.66-5.79,5.87-5.76,3.21.03,5.79,2.66,5.76,5.87-.03,3.19-2.63,5.76-5.82,5.76-3.23-.02-5.83-2.65-5.82-5.87h0"/>
      <path id="Path_85" data-name="Path 85" class="cls-1" d="m79.03,40.36c.03-3.21,2.66-5.79,5.87-5.76,3.21.03,5.79,2.66,5.76,5.87-.03,3.19-2.63,5.76-5.82,5.76-3.23-.02-5.83-2.65-5.82-5.87h0"/>
      <path id="Path_86" data-name="Path 86" class="cls-1" d="m66.2,83.95c-21.81,0-27.08-19.39-27.13-19.59-.27-1.12.41-2.26,1.54-2.53,1.1-.27,2.22.39,2.52,1.48.18.68,4.56,16.45,23.07,16.45s22.28-16.56,22.42-17.26c.25-1.13,1.37-1.84,2.5-1.59,1.1.24,1.81,1.3,1.61,2.41-.04.21-4.32,20.64-26.53,20.64"/>
    </g>
  </g>
</svg>