<?xml version="1.0" encoding="UTF-8"?>
<svg id="Layer_1" data-name="Layer 1" xmlns="http://www.w3.org/2000/svg" viewBox="0 0 229.61 36">
  <defs>
    <style>
      .cls-1 {
        fill: #f8efe6;
      }
    </style>
  </defs>
  <path id="Icon_awesome-star" data-name="Icon awesome-star" class="cls-1" d="m16.79,1.25l-4.59,9.31-10.27,1.5c-1.23.18-2.08,1.32-1.9,2.55.07.49.3.94.66,1.29l7.43,7.24-1.76,10.23c-.21,1.22.61,2.39,1.84,2.6.49.08.99,0,1.42-.23l9.19-4.83,9.19,4.83c1.1.57,2.46.15,3.03-.96.23-.43.3-.93.22-1.41l-1.76-10.23,7.43-7.24c.89-.87.91-2.29.04-3.18-.34-.35-.8-.58-1.29-.66l-10.27-1.5L20.82,1.25c-.55-1.11-1.9-1.57-3.02-1.02-.44.22-.8.58-1.02,1.02Z"/>
  <path id="Icon_awesome-star-2" data-name="Icon awesome-star-2" class="cls-1" d="m64.79,1.25l-4.59,9.31-10.27,1.5c-1.23.18-2.08,1.32-1.9,2.55.07.49.3.94.66,1.29l7.43,7.24-1.76,10.23c-.21,1.22.61,2.39,1.84,2.6.49.08.99,0,1.42-.23l9.19-4.83,9.19,4.83c1.1.57,2.46.15,3.03-.96.23-.43.3-.93.22-1.41l-1.76-10.23,7.43-7.24c.89-.87.91-2.29.04-3.18-.34-.35-.8-.58-1.29-.66l-10.27-1.5-4.59-9.31c-.55-1.11-1.9-1.57-3.02-1.02-.44.22-.8.58-1.02,1.02Z"/>
  <path id="Icon_awesome-star-3" data-name="Icon awesome-star-3" class="cls-1" d="m112.79,1.25l-4.59,9.31-10.27,1.5c-1.23.18-2.08,1.32-1.9,2.55.07.49.3.94.66,1.29l7.43,7.24-1.76,10.23c-.21,1.22.61,2.39,1.84,2.6.49.08.99,0,1.42-.23l9.19-4.83,9.19,4.83c1.1.57,2.46.15,3.03-.96.23-.43.3-.93.22-1.41l-1.76-10.23,7.43-7.24c.89-.87.91-2.29.04-3.18-.34-.35-.8-.58-1.29-.66l-10.27-1.5-4.59-9.31c-.55-1.11-1.9-1.57-3.02-1.02-.44.22-.8.58-1.02,1.02Z"/>
  <path id="Icon_awesome-star-4" data-name="Icon awesome-star-4" class="cls-1" d="m160.79,1.25l-4.59,9.31-10.27,1.5c-1.23.18-2.08,1.32-1.9,2.55.07.49.3.94.66,1.29l7.43,7.24-1.76,10.23c-.21,1.22.61,2.39,1.84,2.6.49.08.99,0,1.42-.23l9.19-4.83,9.19,4.83c1.1.57,2.46.15,3.03-.96.23-.43.3-.93.22-1.41l-1.76-10.23,7.43-7.24c.89-.87.91-2.29.04-3.18-.34-.35-.8-.58-1.29-.66l-10.27-1.5-4.59-9.31c-.55-1.11-1.9-1.57-3.02-1.02-.44.22-.8.58-1.02,1.02Z"/>
  <path id="Icon_awesome-star-5" data-name="Icon awesome-star-5" class="cls-1" d="m208.79,1.25l-4.59,9.31-10.27,1.5c-1.23.18-2.08,1.32-1.9,2.55.07.49.3.94.66,1.29l7.43,7.24-1.76,10.23c-.21,1.22.61,2.39,1.84,2.6.49.08.99,0,1.42-.23l9.19-4.83,9.19,4.83c1.1.57,2.46.15,3.03-.96.23-.43.3-.93.22-1.41l-1.76-10.23,7.43-7.24c.89-.87.91-2.29.04-3.18-.34-.35-.8-.58-1.29-.66l-10.27-1.5-4.59-9.31c-.55-1.11-1.9-1.57-3.02-1.02-.44.22-.8.58-1.02,1.02Z"/>
</svg>