<?xml version="1.0" encoding="UTF-8"?>
<svg id="Layer_3" data-name="Layer 3" xmlns="http://www.w3.org/2000/svg" xmlns:xlink="http://www.w3.org/1999/xlink" viewBox="0 0 163.32 145.17">
  <defs>
    <style>
      .cls-1 {
        fill: #bfa78f;
      }

      .cls-2 {
        clip-path: url(#clippath);
      }

      .cls-3 {
        fill: none;
      }
    </style>
    <clipPath id="clippath">
      <rect class="cls-3" width="163.32" height="145.17"/>
    </clipPath>
  </defs>
  <g class="cls-2">
    <g id="Group_37" data-name="Group 37">
      <path id="Path_94" data-name="Path 94" class="cls-1" d="m100.18,44.85c1.35-5.42.82-11.14-1.5-16.22-2.89-6.89-9.85-14.72-10.5-12.2-1.46,5.63-1.96,11.38-.39,17.06,1.95,7.07,12.11,12.72,12.39,11.35"/>
      <path id="Path_95" data-name="Path 95" class="cls-1" d="m121.83,18.43c-9.34,3.79-17.54,16.78-20.06,26.4,1.15.36,4.34,2.43,5.49,2.63,1.55-5.92,5.26-14.86,10.05-18.91,4.89-4.19,10.68-7.2,16.92-8.79.59-.11,1.15.28,1.26.87.1.54-.23,1.07-.76,1.23-11.08,2.65-19.75,11.13-22.78,19.88,8.31.78,14.43-1.79,21.09-6.53,9.93-7.06,11.78-11.92,14.89-19.26,1.55-3.65-14.9-3.63-26.11,2.49"/>
      <path id="Path_96" data-name="Path 96" class="cls-1" d="m23.3,141.9c-1.66,0-3-1.34-3-3,0-.53.14-1.05.4-1.5l15.04-37.47c.83-1.44,2.66-1.93,4.1-1.1.14.08.27.17.39.27l15.43,11.94,16.25-34.9c.73-1.49,2.53-2.1,4.02-1.36.23.11.45.26.64.43l14.43,10.45,11.29-42.5c.61-1.54,2.35-2.3,3.89-1.69,1.54.61,2.3,2.35,1.69,3.89-.01.03-.02.06-.04.09l-12.88,46.37c-.63,1.53-2.38,2.26-3.92,1.63-.3-.12-.59-.3-.83-.52l-14.64-10.63-16.18,34.77c-.73,1.49-2.53,2.09-4.02,1.36-.2-.1-.39-.22-.56-.36l-15.62-12.1-13.27,34.43c-.54.93-1.53,1.5-2.6,1.5"/>
    </g>
  </g>
</svg>